<?xml version="1.0" encoding="utf-8"?>
<!-- Generator: Adobe Illustrator 25.0.0, SVG Export Plug-In . SVG Version: 6.00 Build 0)  -->
<svg version="1.1" id="e9a400c3-14c4-48e9-ac4d-1e6d0c39fdb5"
	 xmlns="http://www.w3.org/2000/svg" xmlns:xlink="http://www.w3.org/1999/xlink" x="0px" y="0px" viewBox="0 0 893.6 736.8"
	 style="enable-background:new 0 0 893.6 736.8;" xml:space="preserve">
<style type="text/css">
	.st0{fill:#F2F2F2;}
	.st1{fill:none;stroke:#3F3D56;stroke-miterlimit:10;}
	.st2{fill:#0069FF;}
	.st3{fill:#A0616A;}
	.st4{fill:#575A89;}
	.st5{fill:#3F3D56;}
	.st6{opacity:0.1;enable-background:new    ;}
</style>
<path class="st0" d="M168.5,570.5c0,0,332.5-277.5,524,0"/>
<ellipse class="st0" cx="714.1" cy="712.8" rx="154" ry="24"/>
<ellipse class="st1" cx="739.1" cy="703.8" rx="154" ry="24"/>
<path class="st2" d="M170.9,413h36.3c6.5,0,11.9,5.3,11.9,11.9v134.3c0,6.5-5.3,11.9-11.9,11.9h-36.3c-6.5,0-11.9-5.3-11.9-11.9
	V424.9C159,418.3,164.3,413,170.9,413z"/>
<path class="st2" d="M284.9,318h36.3c6.5,0,11.9,5.3,11.9,11.9v229.3c0,6.5-5.3,11.9-11.9,11.9h-36.3c-6.5,0-11.9-5.3-11.9-11.9
	V329.9C273,323.3,278.3,318,284.9,318z"/>
<path class="st2" d="M398.9,252h36.3c6.5,0,11.9,5.3,11.9,11.9v295.3c0,6.5-5.3,11.9-11.9,11.9h-36.3c-6.5,0-11.9-5.3-11.9-11.9
	V263.9C387,257.3,392.3,252,398.9,252z"/>
<path class="st2" d="M512.9,189h36.3c6.5,0,11.9,5.3,11.9,11.9v358.3c0,6.5-5.3,11.9-11.9,11.9h-36.3c-6.5,0-11.9-5.3-11.9-11.9
	V200.9C501,194.3,506.3,189,512.9,189z"/>
<path class="st2" d="M626.9,79h36.3c6.5,0,11.9,5.3,11.9,11.9v468.3c0,6.5-5.3,11.9-11.9,11.9h-36.3c-6.5,0-11.9-5.3-11.9-11.9V90.9
	C615,84.3,620.3,79,626.9,79z"/>
<path class="st1" d="M178.9,405h36.3c6.5,0,11.9,5.3,11.9,11.9v134.3c0,6.5-5.3,11.9-11.9,11.9h-36.3c-6.5,0-11.9-5.3-11.9-11.9
	V416.9C167,410.3,172.3,405,178.9,405z"/>
<path class="st1" d="M292.9,310h36.3c6.5,0,11.9,5.3,11.9,11.9v229.3c0,6.5-5.3,11.9-11.9,11.9h-36.3c-6.5,0-11.9-5.3-11.9-11.9
	V321.9C281,315.3,286.3,310,292.9,310z"/>
<path class="st1" d="M406.9,244h36.3c6.5,0,11.9,5.3,11.9,11.9v295.3c0,6.5-5.3,11.9-11.9,11.9h-36.3c-6.5,0-11.9-5.3-11.9-11.9
	V255.9C395,249.3,400.3,244,406.9,244z"/>
<path class="st1" d="M520.9,181h36.3c6.5,0,11.9,5.3,11.9,11.9v358.3c0,6.5-5.3,11.9-11.9,11.9h-36.3c-6.5,0-11.9-5.3-11.9-11.9
	V192.9C509,186.3,514.3,181,520.9,181z"/>
<path class="st1" d="M634.9,71h36.3c6.5,0,11.9,5.3,11.9,11.9v468.3c0,6.5-5.3,11.9-11.9,11.9h-36.3c-6.5,0-11.9-5.3-11.9-11.9V82.9
	C623,76.3,628.3,71,634.9,71z"/>
<line class="st1" x1="861" y1="571.5" x2="0" y2="571.5"/>
<path class="st3" d="M806.7,475.6c0,0,9.4,33.9-2.5,38.9s-8.2-37.6-8.2-37.6L806.7,475.6z"/>
<path class="st4" d="M721.4,692.7c0,0-8.8-0.6-11.9,1.3c-1.9,1.1-4.2,1.3-6.3,0.6c0,0-13.8-1.3-8.8,5.6s10,9.4,10,12.5
	s20.7,3.1,21.3,0s1.3-19.4,0-20.1S721.4,692.7,721.4,692.7z"/>
<path class="st4" d="M744.6,692.7c0,0,8.8-0.6,11.9,1.3c1.9,1.1,4.2,1.3,6.3,0.6c0,0,13.8-1.3,8.8,5.6s-10,9.4-10,12.5
	s-20.7,3.1-21.3,0s-1.3-19.4,0-20.1S744.6,692.7,744.6,692.7z"/>
<path class="st5" d="M695.7,468.7c0,0-4.4,99.1-1.9,104.1s11.3,89.7,10,94.7s-7.5,25.7,0,28.9s23.8,0,23.8,0s4.4-25.1,2.5-38.3
	s-2.5-68.4-2.5-68.4l12.5-57.7l4.4,54.6c0,0,1.3,74.7-7.5,89.7s3.1,21.3,3.1,21.3s23.8,3.1,26.4,2.5s-1.9-25.1,0-35.8
	s6.3-70.3,10-84.7s25.1-94.7,9.4-111S695.7,468.7,695.7,468.7z"/>
<circle class="st3" cx="741.5" cy="246.6" r="22"/>
<path class="st3" d="M725.1,256.6c0,0,3.8,30.1,1.9,30.7s33.3,0,33.3,0s-6.9-18.2,0-32.6L725.1,256.6z"/>
<path class="st0" d="M725.1,281.1c0,0,15.3-15.1,33.4,0l1.2,4.5l-9.4-0.1h-25.1V281.1z"/>
<path class="st4" d="M799.8,473.7c-1.4,0.3-5,0.9-9.6,1.6c-15.4,2.3-42.7,5.9-43.7,3.4c-1.3-3.1-5.6-14.4-8.8-9.4s-1.3,9.4-14.4,10
	c-9,0.4-22-0.9-29.2-3c-3.4-1-5.5-2.1-5.3-3.3c0.6-3.8,7.5-75.3,7.5-82.2s2.5-40.2,2.5-40.2l-18-35.5l-1.4-2.8c0,0,1.9-6.9,7.5-8.2
	s32.6-16.9,32.6-16.9s5.6-8.8,16.3-8.2s13.2-3.8,27.6,8.2c0,0,17.6,7.5,23.8,11.3s13.2,3.8,13.8,10c0.1,1.3-0.6,3.7-1.7,6.8
	c-4.3,11.2-15.2,31.1-16.9,34.2c-0.2,0.3-0.2,0.4-0.2,0.4s-0.3,11.3,0,24.5v0c0.3,12.7,1.3,27.1,3.7,35.1
	C791,426,806.1,472.4,799.8,473.7z"/>
<path class="st5" d="M770,237.6c-0.4-2-1.3-3.9-2.5-5.5c-0.5-4.6-2-9-4.5-12.9c-1-1.8-2.3-3.4-4-4.6c-1.9-1.1-4.1-1.6-6.3-1.6
	c-0.4,0-1.1,0.1-1.8,0.1c-0.4-0.1-0.8-0.2-1.3-0.4c-0.2-0.5-0.7-2.1-0.9-2l-1.8,1.5c-0.8-0.1-1.6-0.2-2.3-0.3
	c-0.3-0.8-0.6-1.6-0.9-2.4c-0.5,0.7-0.9,1.5-1.2,2.3c-0.8,0-1.6-0.1-2.3,0l-1.6-1.5c-0.2,0.9-0.9,1.5-1.7,1.7
	c-0.7,0.1-1.4,0.2-2.1,0.3c-0.1,0-0.1,0-0.2,0c-3.8-0.1-8-0.3-11.2,1.8c-1.5,1-2.7,2.4-3.5,4c-0.4,0.3-0.8,0.5-1.2,0.8
	c-1.3,0.9-2.4,2-3.3,3.3c-0.6,1.1-1.1,2.3-1.5,3.5c-1.2,3.7-1.8,7.6-1.7,11.5c0.1,3.9,1.6,7.7,4.2,10.7c1.6,1.8,3.7,3.1,5.4,4.8
	c3.4,3.6,4,8.7,6.9,12.5c3.1,4.1,8.7,6.7,13.6,7.5c6,0.9,12-0.6,16.9-4.2c1.2-0.8,2.1-1.8,2.9-3c1.7-2.9,1-6.7,1.6-10
	C765,249.1,771,243.9,770,237.6z"/>
<path class="st3" d="M686.2,477.5c0,0,9.4,33.9-2.5,38.9s-8.2-37.6-8.2-37.6L686.2,477.5z"/>
<path class="st6" d="M697.5,400.6c0,0-4.1,61.1-3.5,75.8c-3.4-1-5.5-2.1-5.3-3.3c0.6-3.8,7.5-75.3,7.5-82.2s2.5-40.2,2.5-40.2
	l-18-35.5c0.3-1.8,0.5-2.8,0.5-2.8l9.1,19.1l12.9,3.5L697.5,400.6z"/>
<path class="st4" d="M683.7,308.7l-4.4,3.8c0,0-5.6,33.3-5,41.4s-13.2,131.8-2.5,131.8s22.6-1.9,20.7-6.3s3.1-78.8,3.1-78.8
	l5.7-65.5L683.7,308.7z"/>
<path class="st6" d="M799.3,315.4c-4.3,11.2-15.2,31.1-16.9,34.2c0.1-8,0.1-13.7,0.1-13.7l13.2-27l2.8-2.2
	C798.5,306.8,798.8,310.1,799.3,315.4z"/>
<path class="st6" d="M799.8,473.7c-1.4,0.3-5,0.9-9.6,1.6c-2.4-17.8-8.8-68.9-8.4-73.7c0.2-2.4,0.4-14.1,0.5-27
	c0.3,12.7,1.3,27.1,3.7,35.1C791,426,806.1,472.4,799.8,473.7z"/>
<path class="st4" d="M791.6,304.3l9.4,2.5c0,0,6.3,69.6,6.9,81.6s8.2,85.3,6.9,88.5s-20.7,7.5-21.3,4.4s-9.7-73.9-9.3-79.6
	s-2.7-64.7-2.7-64.7L791.6,304.3z"/>
<polyline class="st1" points="196.5,344.5 310.5,249.5 425.5,184.5 539.5,121.5 653.5,11.5 "/>
<circle class="st0" cx="193.5" cy="349.5" r="11"/>
<circle class="st0" cx="307.5" cy="254.5" r="11"/>
<circle class="st0" cx="422.5" cy="189.5" r="11"/>
<circle class="st0" cx="536.5" cy="126.5" r="11"/>
<circle class="st0" cx="650.5" cy="16.5" r="11"/>
<circle class="st1" cx="196.5" cy="344.5" r="11"/>
<circle class="st1" cx="310.5" cy="249.5" r="11"/>
<circle class="st1" cx="425.5" cy="184.5" r="11"/>
<circle class="st1" cx="539.5" cy="121.5" r="11"/>
<circle class="st1" cx="653.5" cy="11.5" r="11"/>
</svg>
