<svg width="150" height="29" viewBox="0 0 150 29" fill="none" xmlns="http://www.w3.org/2000/svg">
<path d="M47.963 22.3216V8.85596H57.1561V11.5015H51.217V14.266H56.5675V16.9181H51.217V22.3282H47.963V22.3216Z" fill="white"/>
<path d="M62.004 8.85596V22.3216H58.7897V8.85596H62.004Z" fill="white"/>
<path d="M73.5583 18.0422V17.242C73.5583 16.4153 73.4392 15.6811 73.1945 15.033C72.9564 14.3915 72.6191 13.8491 72.1826 13.4126C71.7461 12.9761 71.2302 12.6454 70.635 12.4206C70.0397 12.1957 69.3784 12.0833 68.6641 12.0833C67.6456 12.0833 66.7659 12.3015 66.012 12.738C65.2646 13.1745 64.6826 13.783 64.2725 14.5634C63.8625 15.3438 63.6575 16.2565 63.6575 17.3015C63.6575 18.3729 63.8625 19.2989 64.2725 20.0793C64.6826 20.8597 65.2712 21.4549 66.0318 21.8716C66.799 22.2883 67.7051 22.4999 68.7633 22.4999C69.6429 22.4999 70.4233 22.3676 71.0913 22.0965C71.7593 21.8253 72.3017 21.4483 72.7183 20.9589C73.135 20.4695 73.3995 19.8941 73.5252 19.2327L70.5755 19.1467C70.4895 19.3716 70.3704 19.5568 70.1985 19.7155C70.0331 19.8676 69.8347 19.9867 69.6032 20.0661C69.3718 20.1454 69.1138 20.1851 68.8294 20.1851C68.4194 20.1851 68.0622 20.0991 67.7646 19.9272C67.467 19.7552 67.2355 19.5171 67.0768 19.2063C66.9181 18.8954 66.8321 18.5383 66.8321 18.1216V18.0356H73.5583V18.0422ZM67.7646 14.6494C68.049 14.4907 68.3731 14.4113 68.7302 14.4113C69.0874 14.4113 69.3982 14.484 69.676 14.6362C69.9472 14.7883 70.1654 14.9999 70.3241 15.2645C70.4829 15.529 70.5622 15.8333 70.5688 16.1772H66.8321C66.8453 15.8531 66.9313 15.5621 67.09 15.2975C67.2554 15.0264 67.4802 14.8081 67.7646 14.6494Z" fill="white"/>
<path d="M77.8043 12.2227L79.4709 15.5494L81.1905 12.2227H84.4313L81.6072 17.2756L84.5305 22.3285H81.3162L79.4643 18.9753L77.6588 22.3285H74.3982L77.3281 17.2756L74.5371 12.2227H77.8043Z" fill="white"/>
<path d="M85.9061 22.3216V8.85596H95.0993V11.5015H89.1601V14.266H94.5106V16.9181H89.1601V22.3282H85.9061V22.3216Z" fill="#0069FF"/>
<path d="M99.4047 22.4938C98.7632 22.4938 98.1878 22.3879 97.6917 22.1697C97.1957 21.9514 96.7989 21.6207 96.5145 21.1842C96.2301 20.7411 96.0846 20.1922 96.0846 19.5242C96.0846 18.962 96.1838 18.4924 96.3822 18.1022C96.5806 17.7186 96.8518 17.4012 97.1957 17.1631C97.5396 16.925 97.9431 16.7398 98.3928 16.6141C98.8425 16.4885 99.3253 16.4025 99.8412 16.3628C100.417 16.3099 100.88 16.257 101.23 16.1975C101.581 16.1379 101.839 16.052 101.997 15.9395C102.156 15.8271 102.235 15.6684 102.235 15.4633V15.4303C102.235 15.093 102.116 14.835 101.885 14.6498C101.653 14.4646 101.336 14.3721 100.946 14.3721C100.522 14.3721 100.179 14.4646 99.9206 14.6498C99.6626 14.835 99.4973 15.0863 99.4245 15.4104L96.4616 15.3046C96.5476 14.6895 96.779 14.1406 97.1428 13.6578C97.5066 13.175 98.0158 12.7914 98.6573 12.5136C99.2989 12.2358 100.073 12.0969 100.972 12.0969C101.614 12.0969 102.209 12.1697 102.751 12.3218C103.294 12.4739 103.77 12.6922 104.173 12.9766C104.577 13.2609 104.888 13.6181 105.112 14.0348C105.331 14.4514 105.443 14.9276 105.443 15.4633V22.3284H102.421V20.9197H102.341C102.163 21.2636 101.931 21.548 101.653 21.7861C101.376 22.0242 101.052 22.2027 100.675 22.3218C100.298 22.4342 99.8743 22.4938 99.4047 22.4938ZM100.397 20.384C100.741 20.384 101.058 20.3112 101.336 20.1723C101.614 20.0334 101.839 19.835 102.004 19.5903C102.169 19.3456 102.255 19.0546 102.255 18.7239V17.7649C102.163 17.8112 102.05 17.8575 101.925 17.8972C101.792 17.9369 101.653 17.9766 101.501 18.0096C101.349 18.0427 101.19 18.0758 101.025 18.1022C100.86 18.1287 100.708 18.1551 100.555 18.175C100.251 18.2213 99.9933 18.3006 99.7817 18.3998C99.57 18.499 99.4047 18.6313 99.2923 18.79C99.1798 18.9488 99.1269 19.1406 99.1269 19.3588C99.1269 19.6895 99.246 19.9475 99.4841 20.1194C99.7222 20.298 100.026 20.384 100.397 20.384Z" fill="#0069FF"/>
<path d="M107.401 22.3214V12.2221H110.522V14.0608H110.628C110.813 13.3928 111.111 12.8967 111.528 12.5727C111.944 12.2486 112.427 12.0833 112.983 12.0833C113.135 12.0833 113.287 12.0899 113.446 12.1097C113.604 12.1295 113.75 12.156 113.889 12.1957V14.9933C113.737 14.9404 113.532 14.9007 113.287 14.8676C113.042 14.8346 112.817 14.8213 112.626 14.8213C112.242 14.8213 111.898 14.9073 111.594 15.0727C111.29 15.2446 111.052 15.4761 110.88 15.7737C110.708 16.0713 110.622 16.4285 110.622 16.8319V22.3147H107.401V22.3214Z" fill="#0069FF"/>
<path d="M115.198 22.3214V12.2221H118.254V14.074H118.366C118.578 13.4589 118.935 12.9761 119.431 12.619C119.934 12.2618 120.529 12.0833 121.217 12.0833C121.918 12.0833 122.52 12.2618 123.016 12.6256C123.519 12.9827 123.836 13.4655 123.968 14.074H124.074C124.259 13.4721 124.63 12.9893 125.179 12.6322C125.728 12.2684 126.376 12.0899 127.116 12.0899C128.069 12.0899 128.849 12.3941 129.445 13.0092C130.04 13.6176 130.337 14.4576 130.337 15.5224V22.3214H127.123V16.2565C127.123 15.7539 126.991 15.3703 126.733 15.1057C126.475 14.8412 126.138 14.7089 125.728 14.7089C125.284 14.7089 124.941 14.8544 124.683 15.1388C124.431 15.4232 124.306 15.8134 124.306 16.2896V22.3214H121.23V16.2235C121.23 15.7539 121.105 15.3835 120.847 15.1124C120.595 14.8412 120.258 14.7023 119.841 14.7023C119.564 14.7023 119.312 14.7684 119.101 14.9007C118.889 15.033 118.717 15.2248 118.598 15.4695C118.479 15.7142 118.419 16.0052 118.419 16.3359V22.3147H115.198V22.3214Z" fill="#0069FF"/>
<path d="M137.07 22.5136C136.012 22.5136 135.106 22.302 134.339 21.8853C133.571 21.4686 132.989 20.8668 132.579 20.093C132.169 19.3125 131.964 18.3866 131.964 17.3152C131.964 16.2702 132.169 15.3575 132.579 14.5771C132.989 13.7967 133.571 13.1882 134.319 12.7517C135.066 12.3152 135.952 12.0969 136.971 12.0969C137.692 12.0969 138.347 12.2094 138.942 12.4342C139.537 12.6591 140.053 12.9898 140.489 13.4263C140.926 13.8628 141.263 14.4051 141.501 15.0467C141.739 15.6882 141.865 16.4223 141.865 17.2557V18.0559H133.089V16.1908H138.876C138.869 15.8469 138.79 15.5427 138.631 15.2781C138.472 15.0136 138.254 14.802 137.983 14.6498C137.712 14.4977 137.394 14.425 137.037 14.425C136.68 14.425 136.356 14.5043 136.071 14.6631C135.787 14.8218 135.562 15.04 135.397 15.3112C135.231 15.5824 135.145 15.8932 135.132 16.2438V18.1419C135.132 18.552 135.212 18.9157 135.377 19.2266C135.542 19.5374 135.767 19.7755 136.065 19.9475C136.362 20.1194 136.72 20.2054 137.13 20.2054C137.414 20.2054 137.672 20.1657 137.903 20.0863C138.135 20.007 138.333 19.8945 138.499 19.7358C138.664 19.5837 138.79 19.3919 138.876 19.167L141.825 19.253C141.7 19.9144 141.435 20.4898 141.018 20.9792C140.602 21.4686 140.059 21.8456 139.391 22.1168C138.723 22.3747 137.95 22.5136 137.07 22.5136Z" fill="#0069FF"/>
<path d="M143.512 22.3214V12.2221H146.634V14.0608H146.739C146.925 13.3928 147.222 12.8967 147.639 12.5727C148.056 12.2486 148.538 12.0833 149.094 12.0833C149.246 12.0833 149.398 12.0899 149.557 12.1097C149.716 12.1295 149.861 12.156 150 12.1957V14.9933C149.848 14.9404 149.643 14.9007 149.398 14.8676C149.153 14.8346 148.929 14.8213 148.737 14.8213C148.353 14.8213 148.009 14.9073 147.705 15.0727C147.401 15.2446 147.163 15.4761 146.991 15.7737C146.819 16.0713 146.733 16.4285 146.733 16.8319V22.3147H143.512V22.3214Z" fill="#0069FF"/>
<path d="M25.5357 0.826904H13.8426C6.19709 0.826904 0 7.02399 0 14.6695V16.0385L2.31482 16.0253C2.28175 15.6417 2.26191 15.2515 2.26191 14.8613C2.26191 8.08881 7.75133 2.59939 14.5238 2.59939C19.041 2.59939 22.9828 5.03987 25.1124 8.67082C26.799 7.73167 28.75 7.20257 30.8796 7.20257H31.8982C31.8982 3.67743 29.0476 0.826904 25.5357 0.826904Z" fill="#0069FF"/>
<path d="M14.5238 16.6666C15.5247 16.6666 16.336 15.8552 16.336 14.8544C16.336 13.8536 15.5247 13.0422 14.5238 13.0422C13.523 13.0422 12.7117 13.8536 12.7117 14.8544C12.7117 15.8552 13.523 16.6666 14.5238 16.6666Z" fill="white"/>
<path d="M14.5239 2.59253C7.75138 2.59253 2.26196 8.08195 2.26196 14.8544C2.26196 15.2447 2.2818 15.6349 2.31487 16.0185L6.58075 15.992L9.6363 15.9722C10.4498 15.9722 11.2501 16.0515 12.0173 16.197C11.799 15.7936 11.6733 15.3372 11.6733 14.8478C11.6733 13.2804 12.9498 12.0105 14.5106 12.0105C16.0781 12.0105 17.3479 13.287 17.3479 14.8478C17.3479 16.0317 16.6204 17.0502 15.5887 17.4735C16.8255 18.1415 17.9366 19.0079 18.8757 20.0396V19.7288C18.8757 14.9404 21.3096 10.7738 25.0993 8.66396C22.9895 5.03301 19.0411 2.59253 14.5239 2.59253Z" fill="white"/>
<path d="M14.5238 12.0171C12.9564 12.0171 11.6865 13.2935 11.6865 14.8544C11.6865 15.3438 11.8122 15.8002 12.0304 16.2036C13.2077 16.4285 14.3254 16.8187 15.3638 17.3544C15.4431 17.3941 15.5291 17.4404 15.6085 17.4867C16.6402 17.0634 17.3677 16.0449 17.3677 14.861C17.3677 13.2869 16.0913 12.0171 14.5238 12.0171ZM14.5238 16.6666C13.5251 16.6666 12.7117 15.8531 12.7117 14.8544C12.7117 13.8557 13.5251 13.0422 14.5238 13.0422C15.5225 13.0422 16.336 13.8557 16.336 14.8544C16.336 15.8531 15.5291 16.6666 14.5238 16.6666Z" fill="#0069FF"/>
<path d="M5.90601 13.6046H4.87427C4.87427 8.97492 8.64411 5.20508 13.2737 5.20508V6.23021C9.21289 6.23021 5.90601 9.54371 5.90601 13.6046Z" fill="#0069FF"/>
<path d="M20.5687 26.0254C20.5554 26.204 20.5488 26.3825 20.5488 26.5677C20.5488 26.5942 20.5488 26.6206 20.5488 26.6471V26.0254H20.5687Z" fill="#0069FF"/>
<path d="M42.1496 8.84302V8.88931C42.0703 14.9938 37.0967 18.3734 30.9591 18.3734H31.3824L28.8097 18.3801C27.8771 18.3801 26.9777 18.5322 26.1377 18.8232C23.2343 19.8152 21.0584 22.3814 20.6218 25.5031C20.5954 25.5163 20.5689 25.5361 20.5425 25.5494V19.7359C20.5425 15.7279 22.7052 12.2293 25.9261 10.3377C27.5398 9.39196 29.4181 8.84963 31.4287 8.84963H42.1496V8.84302Z" fill="#1017FF"/>
<path d="M20.6216 25.5029C20.5951 25.6749 20.5819 25.8468 20.5687 26.0254C20.5554 26.204 20.5488 26.3826 20.5488 26.5677V25.5492C20.5687 25.5294 20.5951 25.5162 20.6216 25.5029Z" fill="#1633FF"/>
<path d="M42.1496 8.84302V18.5652C42.1496 18.6645 42.1496 18.7637 42.143 18.8563C41.9975 24.4118 37.3679 28.7967 31.8189 28.81L21.5742 28.8496H20.5425V26.6473C20.5425 26.6208 20.5425 26.5943 20.5425 26.5679C20.5425 26.3827 20.5491 26.2041 20.5623 26.0256C20.5755 25.847 20.5954 25.675 20.6152 25.5031C21.0451 22.3814 23.2211 19.8152 26.1311 18.8232C26.9711 18.5388 27.8639 18.3801 28.8031 18.3801L31.3758 18.3734H30.9525C37.0835 18.3734 42.0637 15.0004 42.143 8.88931C42.1496 8.87609 42.1496 8.86286 42.1496 8.84302Z" fill="#0069FF"/>
<path d="M19.5503 28.5183V28.849L10.5688 28.8821C4.709 28.558 0.0529101 23.73 0 17.804V17.7247L2.59259 17.6982L8.88228 17.6321C15.549 17.6321 18.6177 21.2696 19.3651 26.1308C19.4709 26.8252 19.5304 27.5527 19.5503 28.2935C19.5503 28.3596 19.5503 28.439 19.5503 28.5183Z" fill="#1017FF"/>
</svg>
