<svg xmlns="http://www.w3.org/2000/svg" viewBox="0 0 303.25 288"><defs><style>.cls-1{fill:#51308d;}.cls-2{fill:#fff;}</style></defs><g id="Layer_2" data-name="Layer 2"><g id="Layer_1-2" data-name="Layer 1"><path class="cls-1" d="M0,144Q0,83.86,0,23.68C0,6.71,7.12,0,25.11,0Q151.35,0,277.57,0c18.73,0,25.66,6.53,25.67,24.08q0,119.88,0,239.76c0,17.56-7,24.12-25.59,24.13q-126.24,0-252.46,0C7.1,288,.06,281.41,0,264.4Q-.06,204.22,0,144Z"/><path class="cls-2" d="M251.68,127H289v14.16H252.65c.65,9.65,1.24,18.43,1.87,27.85h34.6v14H255.46c1.62,25.08,3.2,49.5,4.81,74.32H246c-1.45-24.49-2.9-49-4.38-74.14-17.06,0-33.61-.18-50.14.25-1.79,0-4.19,3.26-5.13,5.5-10.73,25.75-21.23,51.59-31.81,77.4-.9,2.21-1.9,4.38-3.35,7.71-1.22-2.79-2.08-4.66-2.86-6.56-10.7-26.23-21.51-52.42-32-78.74-1.75-4.4-4-5.77-8.61-5.69-15.48.29-31,.11-47.4.11-1.46,24.78-2.91,49.25-4.38,74.11H42c1.67-24.53,3.32-48.8,5-73.84H12.54V169.07c9.91,0,19.88-.2,29.83.09,4.45.12,6.23-1.27,6.3-5.83.11-7,.78-13.91,1.27-21.77H12.48V127.23H51C53.61,89.7,56.22,52.8,58.83,15.9L60,15.61c.91,2,1.87,4.06,2.71,6.13,13.53,33.31,27.12,66.6,40.46,100,1.63,4.1,3.6,5.55,8.05,5.52,26.64-.22,53.27-.26,79.9,0,4.86,0,6.77-1.8,8.46-6,13.37-33.14,27-66.2,40.5-99.27a16.65,16.65,0,0,1,4-6.29C246.65,52.63,249.15,89.51,251.68,127ZM111.42,141.58c3.54,8.76,6.54,16.68,10,24.37a6.42,6.42,0,0,0,4.84,3c16.57.22,33.15.19,49.72,0,1.64,0,4.19-1,4.75-2.23,3.63-8.07,6.84-16.33,10.44-25.15Zm39.73,98,22.83-56H128.43C135.94,202.14,143.18,220,151.15,239.61Zm-90-71.07h46.77c-3.43-8.52-6.5-16.4-9.85-24.16-.56-1.3-2.35-2.92-3.61-2.95-10.42-.23-20.84-.13-31.83-.13C62.09,150.61,61.62,159.28,61.12,168.54Zm179.62.18c-.57-9.49-1.12-18.38-1.67-27.45-10.68,0-20-.11-29.36.1-1.65,0-4.18,1-4.73,2.24-3.62,8-6.8,16.29-10.38,25.11ZM68.18,70.84l-1.65,0c-1,18.55-2,37.09-3.06,55.85H90.91Zm170.18,55.91c-1-18-2-35.51-3-53l-1.77-.2c-7.19,17.53-14.37,35.06-21.82,53.25Z"/></g></g></svg>