<svg xmlns="http://www.w3.org/2000/svg" viewBox="0 0 126.07 75.93"><defs><style>.cls-1{fill:#000;}.cls-2{fill:#fff;}</style></defs><g id="Layer_2" data-name="Layer 2"><g id="Layer_1-2" data-name="Layer 1"><path class="cls-1" d="M126.07,50.47A22.83,22.83,0,0,1,103.24,73.3H45.48L78.92,3.36a31.12,31.12,0,0,1,23.76,24.29h.6A22.83,22.83,0,0,1,126.07,50.47Z"/><path class="cls-2" d="M33.41,35.24c.69-2.77,1.29-5.2,2-8.19,4.43,5.56,9.39,9.12,15.81,10.75,0-.67.07-1.2.1-1.73-4.43-2.4-7-6.26-8.72-10.72-1.93-5-1-7.29,3.53-10,3.53-2.09,7.72-5.18,11.51-6.85h.83a16.33,16.33,0,0,1-.4,2,27.42,27.42,0,0,0-.56,16.77l1.56-.74c0-4.89,1.86-9,4.76-12.67,2.49-3.23,5.72-5.09,9.85-3.93,5.09,1.47,9.15,4.63,12.57,8.55.14.14.1.44.14.77a27.84,27.84,0,0,0-16.54,8.22,8.91,8.91,0,0,1,.87.6c3.26-.77,6-1.93,8.71-1.93,3.5,0,8.69.29,11.45,2.72a8,8,0,0,1,2.29,4,19,19,0,0,1,.17,8.35c-.23,1.37-.53,2.73-.86,4.1-.14.53-1.47,3.09-1.17,3.39-2.39-2.3-4-4.52-6.82-6.45a27.62,27.62,0,0,0-8.62-3.9c-.06.67-.13,1.17-.2,1.63,4.53,3.06,6.86,5.89,8.69,10.55A9.92,9.92,0,0,1,84,59.26c-1.53,2.56-4.22,4-6.85,5.12-1.17.53-2.33,1-3.5,1.63-.93.47-5.69,2.8-4.72-.13a26,26,0,0,0,1.56-7.42,23.2,23.2,0,0,0-.06-4.86c0-.4-.9-4.76-.93-4.72-.57.26-1.07.5-1.54.73,0,5.52-2.29,10-5.85,13.91a8.18,8.18,0,0,1-8.88,2.62,21.38,21.38,0,0,1-5.89-2.89c-2.5-1.73-4.73-3.79-7.69-6.22,7.29-1.13,12.94-3.6,17.5-8.39-.53-.36-1-.66-1.36-1C45.22,53,36.13,50.34,33.37,40.76M73.23,38.2a9.68,9.68,0,1,0-10,9.51A9.66,9.66,0,0,0,73.23,38.2Z"/><path class="cls-2" d="M69.9,38.1a6.32,6.32,0,0,1-6.45,6.32,6.39,6.39,0,0,1-6.29-6.36,6.32,6.32,0,0,1,6.42-6.35A6.18,6.18,0,0,1,69.9,38.1Z"/><path class="cls-1" d="M76.06.13c-1-.06-1.9-.13-2.89-.13A33.41,33.41,0,0,0,45.28,15,16.18,16.18,0,0,0,20.36,28.68v.23a23.62,23.62,0,0,0,3.26,47H39.36Z"/><polyline class="cls-2" points="45.48 73.3 39.36 75.93 76.06 0.13 78.92 3.36"/></g></g></svg>