<?xml version="1.0" standalone="no"?>
<!DOCTYPE svg PUBLIC "-//W3C//DTD SVG 20010904//EN"
 "http://www.w3.org/TR/2001/REC-SVG-20010904/DTD/svg10.dtd">
<svg version="1.0" xmlns="http://www.w3.org/2000/svg"
 width="1024.000000pt" height="1024.000000pt" viewBox="0 0 1024.000000 1024.000000"
 preserveAspectRatio="xMidYMid meet">
<metadata>
Created by potrace 1.11, written by Peter Selinger 2001-2013
</metadata>
<g transform="translate(0.000000,1024.000000) scale(0.100000,-0.100000)"
fill="#000000" stroke="none">
<path d="M7295 8338 c-60 -244 -110 -447 -111 -453 -1 -5 -23 -93 -49 -195
-25 -102 -48 -192 -50 -200 -2 -8 -18 -73 -35 -145 -17 -71 -34 -141 -36 -154
-3 -14 -7 -28 -10 -33 -3 -4 -7 -16 -9 -25 -5 -27 -49 -207 -122 -503 -36
-145 -67 -271 -68 -280 -4 -18 -142 -574 -152 -610 -3 -14 -7 -29 -8 -35 -2
-5 -31 -122 -65 -260 -34 -137 -95 -385 -136 -550 -41 -165 -76 -309 -78 -320
-2 -11 -12 -49 -21 -85 -9 -36 -18 -72 -20 -80 -2 -8 -10 -42 -18 -75 -9 -33
-29 -114 -45 -180 -17 -66 -78 -313 -137 -550 -58 -236 -116 -473 -130 -525
-13 -52 -26 -106 -29 -120 -3 -14 -46 -189 -96 -390 -50 -201 -93 -372 -95
-380 -1 -8 -42 -171 -89 -362 -47 -191 -86 -352 -86 -358 0 -7 233 -10 713
-10 l713 0 29 118 c16 64 30 124 32 132 1 8 39 161 84 340 44 179 82 333 84
344 3 10 29 118 59 240 30 121 85 340 121 486 36 146 67 272 69 280 3 8 9 35
15 60 12 52 197 805 265 1078 25 100 48 193 50 205 2 12 9 42 16 67 7 25 14
52 16 60 2 8 8 35 15 60 6 25 12 52 14 60 14 62 208 847 220 890 13 48 201
809 210 850 2 8 13 53 24 100 12 47 24 96 27 109 3 14 41 167 84 340 78 314
128 519 135 550 2 9 31 126 65 261 33 135 83 337 111 450 28 113 53 213 55
223 5 16 -33 17 -708 17 l-714 0 -109 -442z"/>
<path d="M1414 8341 c-2 -2 -4 -1434 -4 -3181 l0 -3177 713 0 712 0 5 1281 5
1281 1135 0 c624 -1 1137 2 1140 6 3 4 5 270 5 591 l-1 583 -1142 3 -1142 2 0
714 0 714 1113 1 c611 0 1148 0 1192 0 l80 1 0 584 c0 321 -4 588 -8 592 -8 8
-3795 13 -3803 5z"/>
</g>
</svg>
