<?xml version="1.0" encoding="utf-8"?>
<!-- Generator: Adobe Illustrator 25.2.0, SVG Export Plug-In . SVG Version: 6.00 Build 0)  -->
<svg version="1.1" id="Layer_1" xmlns="http://www.w3.org/2000/svg" xmlns:xlink="http://www.w3.org/1999/xlink" x="0px" y="0px"
	 viewBox="0 0 430.5 75.9" style="enable-background:new 0 0 430.5 75.9;" xml:space="preserve">
<style type="text/css">
	.st0{fill:#FFFFFF;}
	.st1{fill:#15CD72;}
	.st2{filter:url(#Adobe_OpacityMaskFilter);}
	.st3{filter:url(#Adobe_OpacityMaskFilter_1_);}
	.st4{mask:url(#SVGID_1_);fill:url(#SVGID_2_);}
	.st5{filter:url(#Adobe_OpacityMaskFilter_2_);}
	.st6{filter:url(#Adobe_OpacityMaskFilter_3_);}
	.st7{mask:url(#SVGID_3_);fill:url(#SVGID_4_);}
	.st8{filter:url(#Adobe_OpacityMaskFilter_4_);}
	.st9{filter:url(#Adobe_OpacityMaskFilter_5_);}
	.st10{mask:url(#SVGID_5_);fill:url(#SVGID_6_);}
	.st11{filter:url(#Adobe_OpacityMaskFilter_6_);}
	.st12{filter:url(#Adobe_OpacityMaskFilter_7_);}
	.st13{mask:url(#SVGID_7_);fill:url(#SVGID_8_);}
	.st14{filter:url(#Adobe_OpacityMaskFilter_8_);}
	.st15{filter:url(#Adobe_OpacityMaskFilter_9_);}
	.st16{mask:url(#SVGID_9_);fill:url(#SVGID_10_);}
	.st17{filter:url(#Adobe_OpacityMaskFilter_10_);}
	.st18{filter:url(#Adobe_OpacityMaskFilter_11_);}
	.st19{mask:url(#SVGID_11_);fill:url(#SVGID_12_);}
	.st20{filter:url(#Adobe_OpacityMaskFilter_12_);}
	.st21{filter:url(#Adobe_OpacityMaskFilter_13_);}
	.st22{mask:url(#SVGID_13_);fill:url(#SVGID_14_);}
	.st23{filter:url(#Adobe_OpacityMaskFilter_14_);}
	.st24{filter:url(#Adobe_OpacityMaskFilter_15_);}
	.st25{mask:url(#SVGID_15_);fill:url(#SVGID_16_);}
</style>
<g id="Layer_2_1_">
	<g id="Layer_1-2_1_">
		<path class="st1" d="M83.2,30.6v0.2c0,1.3-0.4,2.5-1,3.5c0,0,0,0,0,0.1l-2.3-1.3c0,0,0,0,0-0.1c0.4-0.7,0.7-1.6,0.7-2.5
			c0-0.1,0-0.2,0-0.3c0-2.2-1.6-4.1-3.7-4.6l1.1-2.4C81.1,24.3,83.3,27.2,83.2,30.6z"/>
		<path class="st1" d="M101.8,45.1c-1.3-1.2-2.9-2.2-4.4-3.2c-1.9-1.2-3.9-2.3-6-3.2c0,0,0,0,0,0C90,36,88.2,34.1,85.2,32
			c0.1-0.4,0.1-0.8,0.2-1.3c2.4,0.6,4.7,1.7,6.8,3.1c2.2,1.5,3.5,3.3,5.4,5.1c-0.2-0.2,0.8-2.3,0.9-2.7c0.3-1.1,0.5-2.2,0.7-3.2
			c0.4-2.2,0.4-4.4-0.1-6.6c-0.3-1.2-0.9-2.3-1.8-3.2c-2.2-1.9-6.3-2.2-9.1-2.2c-2.1,0-4.3,0.9-6.9,1.5c-0.2-0.2-0.4-0.3-0.7-0.5
			c3.5-3.6,8.1-5.9,13.1-6.5c0-0.3,0-0.5-0.1-0.6c-2.4-2.7-5.1-5-8.5-6.3l2.7-5.7c9.5,2.1,16.9,9.6,18.8,19.2h0.5c10,0,18,8.1,18,18
			c0,9.3-7.1,17-16.2,18c0,0-0.1,0-0.1,0c-0.2,0-0.3,0-0.5,0c0,0,0,0,0,0l0.2-1l0.5-2.4c0.1-0.4,0-0.4-0.1-0.7
			c-0.1-0.3-0.2-0.5-0.4-0.8c-0.3-0.5-0.6-1-0.9-1.5c-1.3-2-2.8-3.9-4.4-5.6c-0.1-0.1-0.1-0.1-0.2-0.2"/>
		<path class="st1" d="M85.5,0.5L81.8,8l-7.2,14.9h0l-2.8,5.7l0,0C69,27.8,66,27,63,26.5c-3.3-0.7-6.6-1-10-1.4
			c-5.7-0.5-11.5-0.6-17.2-0.2c0.6-0.3,1.2-0.6,1.8-0.8c1.2-0.4,2.4-0.8,3.8-0.9v-0.2c0-2.5,0.7-4.9,2-7c3.8-5.9,11.7-7.7,17.7-3.9
			C66,4.9,74.3,0.4,83.2,0.4C84,0.4,84.7,0.5,85.5,0.5z"/>
	</g>
	<g>
		<g>
			<g>
				<g>
					<path class="st1" d="M81.5,66.4c-0.1-0.2-0.3-0.3-0.5-0.5c0,0,0,0,0,0c0,0,0,0,0,0c0,0,0,0,0,0C81.2,66,81.3,66.2,81.5,66.4z"
						/>
				</g>
				<g>
					<g>
						<path class="st1" d="M83.5,59.4L83.5,59.4l0.4,0.2l0-0.1L83.5,59.4z"/>
						<polygon class="st1" points="84,59.6 84,59.6 83.5,59.5 83.5,59.4 						"/>
					</g>
					<g>
						<path class="st1" d="M105.9,51.8c-0.1-0.7-0.2-1.5-0.6-2.1c-0.8-1.2-1.5-2.4-2.4-3.5c0,0-0.1-0.1-0.1-0.1l-1.2-1.6l0.2,0.7
							l0.4,1.2c0.6,1.9,1.4,3.8,2.1,5.7v0c0.4,0.5,0.8,1,1.1,1.5c-0.4-0.5-0.7-1-1.1-1.5c-0.1-0.2-0.1-0.4-0.1-0.6
							c0-0.1-0.1-0.2-0.1-0.4c-0.2-0.8-0.4-1.7-0.6-2.5c-0.1-0.2-0.1-0.4-0.2-0.6c-0.1-0.2-0.3-0.3-0.4-0.5c-0.2-0.3-0.5-0.6-0.7-1
							l0.6-0.3c0.2,0.5,0.3,1,0.4,1.6c0,0.1,0,0.1,0,0.2c0.1,0.1,0.1,0.2,0.2,0.3c0.2,0.3,0.5,0.6,0.7,0.9c0.2,0.3,0.4,0.5,0.7,0.8
							c0.4,0.6,0.7,1.2,0.8,1.9c0.1,0.4,0.1,0.7,0.1,1.1c0,0.2,0,0.4-0.1,0.5c0,0.1,0,0.1-0.1,0.1c0,0,0.1-0.1,0.1-0.1
							c0-0.2,0.1-0.4,0.1-0.5C105.9,52.5,105.9,52.1,105.9,51.8z M105.4,53.5c0.1,0.1,0.2,0.1,0.3,0
							C105.6,53.6,105.5,53.6,105.4,53.5z"/>
						<path class="st1" d="M103.1,48.1l-0.3-0.8c0.5,0.5,1.7,2,1.9,3c0.1,0.6,0.1,1,0.1,1.2c0,0.1-0.1,0.2-0.2,0.3c0,0-0.1,0-0.1,0
							c-0.1,0-0.1,0-0.2-0.1l-0.2-0.2l-0.2-0.6l0.5,0.4c0-0.2-0.1-0.6-0.1-1.1C104.4,49.7,103.7,48.8,103.1,48.1z"/>
					</g>
				</g>
			</g>
		</g>
	</g>
</g>
<g>
	<path d="M143,62.1V30.2h6.7v26.3h13.7v5.6H143z"/>
	<path d="M174.4,62.6c-1.5,0-2.9-0.3-4.1-0.8c-1.2-0.5-2.1-1.3-2.8-2.4c-0.7-1.1-1-2.4-1-3.9c0-1.3,0.2-2.4,0.7-3.3
		c0.5-0.9,1.2-1.6,2-2.2c0.8-0.6,1.8-1,2.9-1.2c1.1-0.3,2.2-0.5,3.4-0.6c1.4-0.1,2.5-0.3,3.4-0.4c0.9-0.1,1.5-0.3,1.9-0.6
		c0.4-0.3,0.6-0.6,0.6-1.2v-0.1c0-1-0.3-1.8-0.9-2.3c-0.6-0.5-1.5-0.8-2.6-0.8c-1.2,0-2.1,0.3-2.9,0.8c-0.7,0.5-1.2,1.2-1.4,2
		l-6.1-0.5c0.3-1.5,0.9-2.7,1.8-3.8c0.9-1.1,2.1-1.9,3.5-2.5c1.4-0.6,3.1-0.9,5-0.9c1.3,0,2.6,0.2,3.8,0.5c1.2,0.3,2.3,0.8,3.3,1.4
		c1,0.7,1.7,1.5,2.3,2.5c0.6,1,0.8,2.2,0.8,3.7v16.1h-6.3v-3.3h-0.2c-0.4,0.7-0.9,1.4-1.5,2c-0.6,0.6-1.4,1-2.3,1.3
		C176.6,62.4,175.6,62.6,174.4,62.6z M176.3,58c1,0,1.8-0.2,2.6-0.6c0.7-0.4,1.3-0.9,1.8-1.6c0.4-0.7,0.6-1.4,0.6-2.3V51
		c-0.2,0.1-0.5,0.3-0.8,0.4c-0.4,0.1-0.8,0.2-1.2,0.3c-0.4,0.1-0.9,0.2-1.3,0.2c-0.4,0.1-0.9,0.1-1.2,0.2c-0.8,0.1-1.5,0.3-2,0.5
		c-0.6,0.2-1,0.6-1.4,1c-0.3,0.4-0.5,0.9-0.5,1.6c0,0.9,0.3,1.6,1,2.1C174.4,57.8,175.3,58,176.3,58z"/>
	<path d="M192.8,62.1V38.2h6.3v4.2h0.3c0.5-1.4,1.3-2.5,2.5-3.3c1.2-0.8,2.6-1.2,4.2-1.2c1.6,0,3,0.4,4.2,1.2
		c1.2,0.8,1.9,1.9,2.3,3.3h0.2c0.5-1.4,1.4-2.5,2.7-3.3c1.3-0.8,2.8-1.2,4.6-1.2c2.2,0,4,0.7,5.4,2.1c1.4,1.4,2.1,3.4,2.1,6v16.1
		H221V47.3c0-1.3-0.4-2.3-1.1-3c-0.7-0.7-1.6-1-2.6-1c-1.2,0-2.1,0.4-2.8,1.1c-0.7,0.8-1,1.8-1,3v14.6H207V47.2c0-1.2-0.3-2.1-1-2.8
		c-0.7-0.7-1.6-1-2.6-1c-0.7,0-1.4,0.2-2,0.6c-0.6,0.4-1.1,0.9-1.4,1.5c-0.3,0.7-0.5,1.4-0.5,2.3v14.4H192.8z"/>
	<path d="M232.7,62.1V30.2h6.6v12h0.2c0.3-0.6,0.7-1.3,1.3-2c0.6-0.7,1.3-1.2,2.2-1.7c0.9-0.5,2-0.7,3.4-0.7c1.7,0,3.4,0.5,4.8,1.4
		c1.5,0.9,2.7,2.3,3.5,4.1c0.9,1.8,1.3,4.1,1.3,6.8c0,2.7-0.4,4.9-1.3,6.8c-0.9,1.8-2,3.2-3.5,4.2c-1.5,0.9-3.1,1.4-4.9,1.4
		c-1.3,0-2.4-0.2-3.3-0.6c-0.9-0.4-1.6-1-2.2-1.6c-0.6-0.6-1-1.3-1.3-2h-0.3v3.8H232.7z M239.2,50.2c0,1.4,0.2,2.7,0.6,3.7
		c0.4,1.1,1,1.9,1.7,2.5c0.7,0.6,1.7,0.9,2.7,0.9c1.1,0,2-0.3,2.7-0.9c0.7-0.6,1.3-1.4,1.7-2.5c0.4-1.1,0.6-2.3,0.6-3.7
		c0-1.4-0.2-2.6-0.6-3.6c-0.4-1-1-1.9-1.7-2.5c-0.7-0.6-1.7-0.9-2.8-0.9c-1.1,0-2,0.3-2.7,0.9c-0.7,0.6-1.3,1.4-1.7,2.4
		C239.4,47.5,239.2,48.7,239.2,50.2z"/>
	<path d="M271.1,62.6c-2.4,0-4.5-0.5-6.3-1.6c-1.8-1-3.1-2.5-4.1-4.3c-1-1.9-1.4-4-1.4-6.5c0-2.5,0.5-4.6,1.4-6.5
		c1-1.9,2.3-3.3,4.1-4.3c1.8-1,3.9-1.6,6.3-1.6c2.4,0,4.5,0.5,6.3,1.6c1.8,1,3.1,2.5,4.1,4.3c1,1.9,1.4,4,1.4,6.5
		c0,2.5-0.5,4.6-1.4,6.5c-1,1.9-2.3,3.3-4.1,4.3C275.6,62.1,273.5,62.6,271.1,62.6z M271.1,57.4c1.1,0,2-0.3,2.8-0.9
		c0.7-0.6,1.3-1.5,1.7-2.6c0.4-1.1,0.6-2.3,0.6-3.7c0-1.4-0.2-2.6-0.6-3.7c-0.4-1.1-0.9-2-1.7-2.6c-0.7-0.6-1.7-1-2.8-1
		c-1.1,0-2,0.3-2.8,1c-0.8,0.6-1.3,1.5-1.7,2.6c-0.4,1.1-0.6,2.3-0.6,3.7c0,1.4,0.2,2.6,0.6,3.7c0.4,1.1,0.9,2,1.7,2.6
		C269.1,57.1,270,57.4,271.1,57.4z"/>
	<path d="M287,71.1V38.2h6.5v4h0.3c0.3-0.6,0.7-1.3,1.3-2c0.6-0.7,1.3-1.2,2.2-1.7c0.9-0.5,2-0.7,3.4-0.7c1.7,0,3.4,0.5,4.8,1.4
		c1.5,0.9,2.7,2.3,3.5,4.1c0.9,1.8,1.3,4.1,1.3,6.8c0,2.7-0.4,4.9-1.3,6.8c-0.9,1.8-2,3.2-3.5,4.2c-1.5,0.9-3.1,1.4-4.9,1.4
		c-1.3,0-2.4-0.2-3.3-0.6c-0.9-0.4-1.6-1-2.2-1.6c-0.6-0.6-1-1.3-1.3-2h-0.2v12.8H287z M293.5,50.2c0,1.4,0.2,2.7,0.6,3.7
		c0.4,1.1,1,1.9,1.7,2.5c0.7,0.6,1.7,0.9,2.7,0.9c1.1,0,2-0.3,2.7-0.9c0.7-0.6,1.3-1.4,1.7-2.5c0.4-1.1,0.6-2.3,0.6-3.7
		c0-1.4-0.2-2.6-0.6-3.6c-0.4-1-1-1.9-1.7-2.5c-0.7-0.6-1.7-0.9-2.8-0.9c-1.1,0-2,0.3-2.7,0.9c-0.7,0.6-1.3,1.4-1.7,2.4
		C293.7,47.5,293.5,48.7,293.5,50.2z"/>
	<path d="M325.3,62.6c-2.4,0-4.5-0.5-6.3-1.6c-1.8-1-3.1-2.5-4.1-4.3c-1-1.9-1.4-4-1.4-6.5c0-2.5,0.5-4.6,1.4-6.5
		c1-1.9,2.3-3.3,4.1-4.3c1.8-1,3.9-1.6,6.3-1.6c2.4,0,4.5,0.5,6.3,1.6c1.8,1,3.1,2.5,4.1,4.3c1,1.9,1.4,4,1.4,6.5
		c0,2.5-0.5,4.6-1.4,6.5c-1,1.9-2.3,3.3-4.1,4.3C329.8,62.1,327.7,62.6,325.3,62.6z M325.3,57.4c1.1,0,2-0.3,2.8-0.9
		c0.7-0.6,1.3-1.5,1.7-2.6c0.4-1.1,0.6-2.3,0.6-3.7c0-1.4-0.2-2.6-0.6-3.7c-0.4-1.1-0.9-2-1.7-2.6c-0.7-0.6-1.7-1-2.8-1
		c-1.1,0-2,0.3-2.8,1c-0.8,0.6-1.3,1.5-1.7,2.6c-0.4,1.1-0.6,2.3-0.6,3.7c0,1.4,0.2,2.6,0.6,3.7c0.4,1.1,0.9,2,1.7,2.6
		C323.3,57.1,324.2,57.4,325.3,57.4z"/>
	<path d="M352,62.6c-2.4,0-4.5-0.5-6.3-1.6c-1.8-1-3.1-2.5-4.1-4.3c-1-1.9-1.4-4-1.4-6.5c0-2.5,0.5-4.6,1.4-6.5
		c1-1.9,2.3-3.3,4.1-4.3c1.8-1,3.9-1.6,6.3-1.6c2.4,0,4.5,0.5,6.3,1.6c1.8,1,3.1,2.5,4.1,4.3c1,1.9,1.4,4,1.4,6.5
		c0,2.5-0.5,4.6-1.4,6.5c-1,1.9-2.3,3.3-4.1,4.3C356.5,62.1,354.4,62.6,352,62.6z M352,57.4c1.1,0,2-0.3,2.8-0.9
		c0.7-0.6,1.3-1.5,1.7-2.6c0.4-1.1,0.6-2.3,0.6-3.7c0-1.4-0.2-2.6-0.6-3.7c-0.4-1.1-0.9-2-1.7-2.6c-0.7-0.6-1.7-1-2.8-1
		c-1.1,0-2,0.3-2.8,1c-0.8,0.6-1.3,1.5-1.7,2.6c-0.4,1.1-0.6,2.3-0.6,3.7c0,1.4,0.2,2.6,0.6,3.7c0.4,1.1,0.9,2,1.7,2.6
		C350,57.1,350.9,57.4,352,57.4z"/>
	<path d="M374.5,30.2v31.9h-6.6V30.2H374.5z"/>
	<path class="st1" d="M383.5,62.5c-1,0-1.9-0.4-2.6-1.1c-0.7-0.7-1.1-1.6-1.1-2.6c0-1,0.4-1.9,1.1-2.6c0.7-0.7,1.6-1.1,2.6-1.1
		c1,0,1.9,0.4,2.6,1.1c0.7,0.7,1.1,1.6,1.1,2.6c0,0.7-0.2,1.3-0.5,1.9c-0.3,0.6-0.8,1-1.4,1.4C384.8,62.4,384.2,62.5,383.5,62.5z"/>
	<path class="st1" d="M395.8,35.1c-1,0-1.8-0.3-2.5-1c-0.7-0.7-1.1-1.5-1.1-2.4c0-0.9,0.4-1.7,1.1-2.4c0.7-0.7,1.5-1,2.5-1
		c1,0,1.8,0.3,2.5,1c0.7,0.7,1.1,1.4,1.1,2.4c0,0.9-0.4,1.7-1.1,2.4C397.6,34.8,396.8,35.1,395.8,35.1z M392.4,62.1V38.2h6.6v23.9
		H392.4z"/>
	<path class="st1" d="M415,62.6c-2.4,0-4.5-0.5-6.3-1.6c-1.8-1-3.1-2.5-4.1-4.3c-1-1.9-1.4-4-1.4-6.5c0-2.5,0.5-4.6,1.4-6.5
		c1-1.9,2.3-3.3,4.1-4.3c1.8-1,3.9-1.6,6.3-1.6c2.4,0,4.5,0.5,6.3,1.6c1.8,1,3.1,2.5,4.1,4.3c1,1.9,1.4,4,1.4,6.5
		c0,2.5-0.5,4.6-1.4,6.5c-1,1.9-2.3,3.3-4.1,4.3C419.5,62.1,417.4,62.6,415,62.6z M415,57.4c1.1,0,2-0.3,2.8-0.9
		c0.7-0.6,1.3-1.5,1.7-2.6c0.4-1.1,0.6-2.3,0.6-3.7c0-1.4-0.2-2.6-0.6-3.7c-0.4-1.1-0.9-2-1.7-2.6c-0.7-0.6-1.7-1-2.8-1
		c-1.1,0-2,0.3-2.8,1c-0.8,0.6-1.3,1.5-1.7,2.6c-0.4,1.1-0.6,2.3-0.6,3.7c0,1.4,0.2,2.6,0.6,3.7c0.4,1.1,0.9,2,1.7,2.6
		C413,57.1,413.9,57.4,415,57.4z"/>
</g>
<g>
	<g>
		<g>
			<g>
				<path d="M65.5,72.2c-1.1,0.5-2.3,0.8-3.4,1c-1.2,0.2-2.3,0.4-3.5,0.4l0-0.2c0,0,0,0,0,0l0,0c0.2,0,0.3,0,0.5,0
					c-0.1,0.1-0.3,0.2-0.5,0.2l0,0c0,0-0.1,0-0.1,0l0-0.2c1.1-0.4,2.3-0.7,3.4-0.9C63.1,72.3,64.3,72.2,65.5,72.2z"/>
				<g>
					<path d="M58,54.5c1.9,1.2,3.2,3.2,4.1,5.2c0.9,2.1,1.3,4.4,1.2,6.6c-0.1,2.2-0.8,4.6-2.6,6.2c-0.9,0.8-2,1.3-3.3,1.3
						c-1.2,0-2.4-0.4-3.4-1c-2-1.3-3.3-3.3-4.1-5.4c-0.8-2.1-1.2-4.5-0.9-6.7c0.2-2.2,1-4.6,2.8-6.1c0.9-0.7,2-1.2,3.1-1.2
						C56,53.5,57.1,53.9,58,54.5z M58,54.5c-0.9-0.6-2.1-1-3.2-1c-1.1,0-2.2,0.5-3,1.2c-1.7,1.5-2.3,3.8-2.5,6
						c-0.1,2.2,0.3,4.4,1.1,6.5c0.8,2,2.1,3.9,3.9,5.1c0.9,0.6,1.9,1,3,0.9c1.1,0,2.1-0.4,2.9-1.1c1.7-1.4,2.4-3.6,2.6-5.8
						c0.2-2.2-0.1-4.5-0.9-6.6C61.2,57.7,59.9,55.7,58,54.5z"/>
				</g>
				<g>
					<path d="M50.3,62.7c0.3,4.5,2.9,8.8,6.1,9.4c3.4,0.6,5.8-3.2,5.1-8.3C61,59,57.9,55.3,55,55.2C52.1,55.2,50.1,58.4,50.3,62.7z
						 M52.1,57.4l-0.7,2.1l0.8,1.8l-0.6,0l-0.7,2.3c0-0.2-0.1-0.5-0.1-0.7C50.7,60.5,51.2,58.6,52.1,57.4z M57.2,68l-0.7-1.5
						l0.6-1.8l0.7,0.1l0.2,0.4l1.1,0.1l1,2.1l-0.7,2.3l-1.8-0.3l-0.4-1L57.2,68z M54.2,58.7l0.6,1.3l-0.5,1.7l-0.6-0.1l-0.2-0.3
						l-1-0.1l-0.8-1.8l0.6-2l1.6,0.1l0.4,0.8L54.2,58.7z M55.8,64.7c-0.6-0.1-1.1-0.8-1.2-1.7c-0.1-0.9,0.3-1.5,0.9-1.5
						c0.6,0,1.1,0.8,1.2,1.7C56.8,64.1,56.4,64.8,55.8,64.7z M54.7,61.5l0.3-1l0.3,0.7C55.1,61.2,54.9,61.3,54.7,61.5z M56,61.4
						l0.8,0.1l-0.2,0.7C56.5,61.8,56.3,61.6,56,61.4z M57.5,64.2L57,64.2c0.1-0.3,0.1-0.6,0-0.9c0-0.1,0-0.1,0-0.2L57.5,64.2z
						 M56.6,64.9L56.3,66L56,65.2C56.2,65.2,56.5,65.1,56.6,64.9z M55.3,65l-0.8-0.1l0.2-0.7C54.8,64.5,55,64.8,55.3,65z M53.9,62.2
						l0.5,0c-0.1,0.2-0.1,0.5-0.1,0.8c0,0.1,0,0.1,0,0.2L53.9,62.2z M54.7,58.4l0.5-1.7l1.6,0.1l1.1,2.1l-0.2,0.8l-0.3,0L57,61
						l-1.4-0.1L55.2,60l0.1-0.3L54.7,58.4z M59.4,60.3l1.2,2.3l-0.6,2.2l-0.7-0.1L59,64.4l-1.1-0.1L57,62.3l0.3-0.8l0.3,0l0.4-1.3
						L59.4,60.3z M56.7,68.3l-0.6,1.9l-1.7-0.3l-1-2.4l0.3-0.8l0.3,0l0.4-1.3l1.4,0.2l0.4,0.9l-0.1,0.3L56.7,68.3z M52.1,65.9
						l-0.9-2.2l0.6-2l0.6,0.1l0.1,0.3l1,0.1l0.8,1.9l-0.3,0.8l-0.3,0l-0.4,1.3L52.1,65.9z M55,55.9c0.6,0,1.2,0.2,1.7,0.5L55,56.3
						L54.5,58l-0.4-0.8l-1.7-0.1C53.1,56.3,54,55.9,55,55.9z M60.8,62.3l-1.2-2.4l-1.5-0.1l0.2-0.8l-1.2-2.4
						C58.7,57.6,60.1,59.7,60.8,62.3z M59.8,69.8l0.7-2.4l-1-2.1l0.7,0.1l0.7-2.5c0.1,0.3,0.1,0.5,0.1,0.8
						C61.4,66.2,60.9,68.4,59.8,69.8z M56.4,71.2c-0.6-0.1-1.3-0.4-1.9-0.8l1.9,0.3l0.6-1.9l0.4,1l2.1,0.3
						C58.7,71,57.6,71.4,56.4,71.2z M50.9,64l1,2.4l1.4,0.2L53,67.4l1.1,2.7C52.6,68.8,51.4,66.5,50.9,64z"/>
				</g>
				<g>
					<path d="M55.7,62.3c0.3,0.2,0.5,0.8,0.4,1.3c-0.1,0.5-0.5,0.7-0.8,0.5c-0.3-0.2-0.5-0.8-0.4-1.3C55,62.3,55.4,62.1,55.7,62.3z"
						/>
				</g>
				<g>
					<path d="M18.6,52.7c-0.9,0.4-1.9,0.7-2.8,0.9c-1,0.2-1.9,0.3-2.9,0.3l0-0.2c0,0,0,0,0,0l0,0c0.1,0,0.3,0,0.4,0
						c-0.1,0.1-0.2,0.1-0.4,0.2l0,0c0,0-0.1,0-0.1,0l0-0.2c0.9-0.4,1.9-0.6,2.9-0.8C16.6,52.8,17.5,52.7,18.6,52.7z"/>
					<g>
						<path d="M12.3,38c1.6,1,2.7,2.6,3.4,4.4c0.7,1.7,1.1,3.6,1,5.5c-0.1,1.9-0.7,3.9-2.2,5.2c-0.7,0.7-1.7,1.1-2.7,1.1
							c-1,0-2-0.3-2.8-0.8c-1.7-1.1-2.8-2.8-3.5-4.6c-0.7-1.8-1-3.7-0.8-5.6c0.2-1.9,0.8-3.8,2.3-5.1c0.7-0.6,1.6-1,2.6-1
							C10.6,37.1,11.5,37.4,12.3,38z M12.3,38c-0.8-0.5-1.7-0.8-2.6-0.8c-0.9,0-1.8,0.4-2.5,1c-1.4,1.3-1.9,3.2-2,5
							c-0.1,1.8,0.3,3.7,1,5.4c0.7,1.7,1.8,3.2,3.3,4.2c0.7,0.5,1.6,0.8,2.4,0.8c0.9,0,1.7-0.3,2.4-0.9c1.4-1.1,2-3,2.2-4.8
							c0.2-1.8-0.1-3.7-0.7-5.5C15,40.6,13.9,39,12.3,38z"/>
					</g>
					<g>
						<path d="M5.9,44.8c0.2,3.8,2.4,7.3,5.1,7.8c2.8,0.5,4.8-2.7,4.3-6.9c-0.5-4-3-7-5.5-7.1C7.4,38.5,5.7,41.2,5.9,44.8z
							 M7.4,40.4l-0.6,1.7l0.6,1.5l-0.5,0l-0.6,1.9c0-0.2,0-0.4-0.1-0.6C6.2,43,6.6,41.4,7.4,40.4z M11.7,49.2L11.1,48l0.5-1.5
							l0.6,0.1l0.1,0.3l0.9,0.1l0.8,1.7l-0.6,1.9l-1.5-0.2l-0.4-0.8L11.7,49.2z M9.2,41.5l0.5,1.1L9.2,44l-0.5,0l-0.1-0.3l-0.8-0.1
							l-0.6-1.5l0.5-1.6l1.3,0.1l0.3,0.7L9.2,41.5z M10.5,46.5c-0.5-0.1-0.9-0.7-1-1.4c-0.1-0.7,0.3-1.2,0.7-1.2
							c0.5,0,0.9,0.7,1,1.4C11.3,46,11,46.6,10.5,46.5z M9.6,43.8L9.9,43l0.3,0.6C9.9,43.6,9.7,43.6,9.6,43.8z M10.7,43.7l0.7,0.1
							l-0.2,0.6C11.1,44.1,10.9,43.9,10.7,43.7z M11.9,46.1l-0.5,0c0-0.2,0.1-0.5,0-0.7c0-0.1,0-0.1,0-0.2L11.9,46.1z M11.2,46.6
							l-0.3,0.9l-0.3-0.6C10.8,46.9,11,46.8,11.2,46.6z M10.1,46.7l-0.7-0.1l0.2-0.6C9.7,46.3,9.9,46.6,10.1,46.7z M8.9,44.4l0.4,0
							c0,0.2-0.1,0.4,0,0.7c0,0.1,0,0.1,0,0.2L8.9,44.4z M9.6,41.3l0.4-1.4l1.4,0l0.9,1.8L12,42.3l-0.2,0l-0.3,1.1l-1.2-0.1L10,42.6
							l0.1-0.3L9.6,41.3z M13.5,42.8l1,1.9l-0.5,1.8l-0.6-0.1l-0.2-0.3l-0.9-0.1l-0.8-1.6l0.2-0.7l0.2,0l0.3-1.1L13.5,42.8z
							 M11.2,49.5L10.8,51l-1.5-0.2l-0.9-2l0.2-0.7l0.2,0L9.2,47l1.2,0.1l0.4,0.8l-0.1,0.3L11.2,49.5z M7.4,47.5l-0.8-1.9l0.5-1.7
							l0.5,0l0.1,0.3l0.8,0.1l0.7,1.6l-0.2,0.7l-0.2,0l-0.3,1.1L7.4,47.5z M9.8,39.1c0.5,0,1,0.2,1.4,0.4l-1.4,0l-0.4,1.4l-0.3-0.7
							l-1.5-0.1C8.2,39.5,8.9,39.1,9.8,39.1z M14.6,44.4l-1-2l-1.2-0.1l0.2-0.7l-1-2C12.9,40.6,14.1,42.3,14.6,44.4z M13.8,50.7
							l0.6-2L13.5,47l0.6,0.1l0.6-2.1c0,0.2,0.1,0.4,0.1,0.7C15.1,47.7,14.7,49.6,13.8,50.7z M11,51.9c-0.5-0.1-1.1-0.3-1.5-0.7
							l1.5,0.3l0.5-1.6l0.4,0.8l1.7,0.3C12.9,51.7,12,52.1,11,51.9z M6.4,45.9l0.8,2L8.4,48l-0.2,0.7L9.1,51
							C7.8,49.9,6.8,48,6.4,45.9z"/>
					</g>
					<g>
						<path d="M10.4,44.5c0.3,0.2,0.4,0.7,0.3,1c-0.1,0.4-0.4,0.6-0.6,0.4c-0.3-0.2-0.4-0.7-0.3-1C9.8,44.5,10.1,44.3,10.4,44.5z"/>
					</g>
				</g>
				<path d="M48.3,65c-2.6-0.9-5.1-1.8-7.6-2.8c-2.5-1-5-2-7.5-3c-2.5-1-5-2-7.5-3.1c-2.5-1.1-5-2.1-7.4-3.3l0,0l0-0.1l0,0.1l0,0
					c2.6,0.9,5.1,1.8,7.6,2.8c2.5,1,5,2,7.5,3c2.5,1,5,2,7.5,3.1C43.4,62.8,45.9,63.9,48.3,65z"/>
				<path d="M91,38.6c2.2,0.9,4.4,1.9,6.5,3.1c1,0.6,2.1,1.2,3.1,1.9c1,0.7,1.9,1.5,2.8,2.3c1.7,1.7,3.2,3.6,4.6,5.6
					c0.3,0.5,0.7,1,1,1.5c0.2,0.3,0.3,0.5,0.4,0.8c0.1,0.2,0.1,0.3,0.2,0.5c0.1,0.3,0,0.3,0,0.5l-0.7,3.6l0-0.2l1.1,2.4l0.6,1.2
					c0.1,0.2,0.2,0.4,0.3,0.7c0.1,0.3,0,0.5,0,0.8l0,0l0,0c-0.4,1-1,1.9-1.7,2.7l0,0c-0.3,0.4-0.6,0.6-0.9,0.9
					c-0.3,0.3-0.6,0.6-1,0.8l0.1,0c-0.1,0.1-0.2,0.1-0.3,0.2l0,0c-1.6,1.2-3.4,2.1-5.2,2.9c-0.9,0.4-1.8,0.7-2.8,1.1
					c-1,0.3-1.9,0.5-2.9,0.8c-1.9,0.5-3.8,1-5.7,1.4c-1.9,0.5-3.9,0.7-5.9,0.9l0,0l-0.3,0l0,0L84,75l0,0c-1,0.1-2,0.2-3,0.2
					c-1,0-2,0-3-0.1l0,0l0,0L66.3,72l0,0l0,0l0,0l0,0l-0.9-0.2l0.9,0.2l0,0l0,0l0,0l0,0c3.9,0.9,7.8,1.8,11.7,2.8l0,0
					c1,0.1,2,0.1,3,0.1c1-0.1,2-0.1,3-0.2l0,0l0.1,0l0,0l0.3,0l0,0c2-0.2,3.9-0.5,5.8-1c1.9-0.5,3.8-1,5.7-1.5
					c0.9-0.3,1.9-0.5,2.8-0.8c0.9-0.3,1.8-0.7,2.7-1.1c0.9-0.4,1.8-0.8,2.6-1.3c0.9-0.5,1.7-1,2.5-1.5l0,0c0,0,0.1-0.1,0.1-0.1
					l0.1,0c0.3-0.2,0.6-0.5,0.9-0.8c0.3-0.3,0.6-0.5,0.9-0.8l0,0l0,0c0.7-0.7,1.2-1.5,1.5-2.4l0,0.1c0-0.4,0-0.7-0.2-1.1l-0.6-1.2
					l-1.1-2.4l0-0.1l0-0.1l0.7-3.5c0.1-0.4,0-0.4-0.1-0.7c-0.1-0.3-0.2-0.5-0.4-0.8c-0.3-0.5-0.6-1-0.9-1.5c-1.3-2-2.8-3.9-4.4-5.6
					c-1.6-1.7-3.6-3.1-5.6-4.4C95.3,40.7,93.2,39.6,91,38.6z"/>
				<path d="M72.8,29.2l0-0.3l0,0c-3.2-0.9-6.5-1.8-9.8-2.4c-3.3-0.7-6.6-1-10-1.4c-6.7-0.5-13.4-0.6-20.1,0.1
					c-1.7,0.1-3.3,0.4-5,0.7l-5,0.9l-10,1.7l-2.5,0.4l-1.2,0.2c-0.4,0.1-0.8,0.1-1.2,0.3c-0.4,0.2-0.7,0.4-0.9,0.7
					c-0.3,0.3-0.5,0.6-0.6,1l-1.1,2.3c-0.8,1.5-1.4,3-1.6,4.7c-0.2,1.7,0,3.4,0.4,5c-0.5-1.6-0.8-3.3-0.6-5c0.1-1.7,0.7-3.3,1.4-4.9
					l1-2.3c0.2-0.4,0.4-0.8,0.7-1.1c0.3-0.4,0.6-0.6,1-0.8c0.4-0.2,0.9-0.3,1.3-0.3l1.2-0.2l2.5-0.5l9.9-1.8l5-0.9
					c1.6-0.3,3.3-0.6,5-0.7c6.7-0.6,13.5-0.6,20.2,0.1c3.4,0.4,6.7,0.8,10,1.6c3.3,0.7,6.5,1.6,9.7,2.7l0,0l0,0L72.8,29.2z"/>
				<g>
					<path d="M22.1,52.5l6.2,0.7l0,0l0,0c1.7,0.8,3.3,1.6,5,2.4c1.7,0.8,3.3,1.6,5,2.5l4.9,2.5l2.5,1.3l1.2,0.7l0.6,0.4l0.3,0.2
						c0.1,0.1,0.2,0.1,0.4,0.5l0.3,0.7l-0.8-0.3l-6.6-2.7c-2.2-0.9-4.4-1.8-6.6-2.7L28,56l-3.3-1.4l-1.6-0.7
						C22.5,53.7,22.1,53.1,22.1,52.5z M22.1,52.5c0,0.6,0.4,1.1,1,1.3l1.7,0.6l3.3,1.2l6.6,2.5c2.2,0.8,4.4,1.7,6.6,2.6l6.6,2.6
						l-0.5,0.4c0.1,0.2,0,0-0.1,0l-0.3-0.2l-0.6-0.4l-1.2-0.7l-2.4-1.3L38,58.6l-9.8-5.1l0,0L22.1,52.5z"/>
					<path d="M48.3,65c-2.6-0.9-5.1-1.8-7.6-2.8c-2.5-0.9-5-2-7.6-3c-5-2-10-4.1-14.9-6.3l-0.1,0l0-0.1c0,0,0-0.1,0-0.1l0,0l0,0
						l0.3-1.8l-0.1,1.8l0,0c0,0,0,0.1,0,0.1l-0.1-0.1c2.5,0.9,5.1,1.9,7.6,2.8l7.5,3c2.5,1,5,2,7.5,3.1C43.4,62.8,45.9,63.9,48.3,65
						z"/>
					<path d="M107.7,64c0.1,0.3,0,0.4,0,0.5c-0.1,0.1-0.2,0.1-0.5-0.1c-0.1-0.3,0-0.4,0-0.5C107.3,63.9,107.4,63.9,107.7,64z"/>
					<path d="M65.5,71.8c4.2,0.9,8.4,1.9,12.6,2.9l0,0c1,0.1,2,0.1,2.9,0.1c1,0,2-0.1,3-0.2l-0.1,0c0.1,0,0.1,0,0.2,0l0,0l1.2-0.2
						c0.4-0.1,0.8-0.1,1.2-0.2l0,0l0,0l0.9-0.1l0,0l0.7-0.1c0.2,0,0.5-0.1,0.7-0.1l0,0l0,0c3-0.5,6-1.2,8.9-2.1
						c1.5-0.5,2.9-1,4.3-1.6c1.4-0.6,2.8-1.3,4-2.1l0,0l0,0l0.3-0.2l0,0l0,0l0.3-0.2l0,0l0,0c0.4-0.3,0.8-0.6,1.2-0.9l0,0
						c0.3-0.3,0.6-0.6,0.9-0.8l0,0c0.3-0.3,0.5-0.6,0.7-0.9l0,0.1c0,0,0-0.1,0-0.1l0,0c0.2-0.3,0.3-0.5,0.5-0.8l0.4-0.8l0,0l0-0.4
						l0,0l-0.6-0.5l0.7,0.5l0,0l0,0l0,0.4l0,0l0,0l-0.4,0.8c-0.1,0.3-0.3,0.5-0.4,0.8l0,0c0,0,0,0,0,0l0,0.1
						c-0.2,0.3-0.5,0.6-0.7,0.9l0,0c-0.3,0.3-0.6,0.6-0.9,0.9l0,0c-0.4,0.4-0.8,0.7-1.2,1l0,0l-0.3,0.2l0,0l-0.3,0.2l0,0
						c-2.6,1.8-5.4,3-8.4,4c-2.9,1-6,1.7-9,2.2l0,0c-0.3,0.1-0.5,0.1-0.7,0.1l-0.7,0.1l0,0l-0.9,0.1l0,0c-0.4,0.1-0.8,0.1-1.3,0.2
						l-1.2,0.1l0,0c0,0,0,0,0,0l-0.1,0c-1,0.1-2,0.2-3,0.2c-1,0-2,0-3.1-0.1l0,0l0,0C73.8,74.1,69.6,73,65.5,71.8z"/>
					<path d="M81.5,66.4c-1.1-1.2-2.2-2.3-3.3-3.5c-1.1-1.1-2.3-2.2-3.5-3.3c-2.4-2.1-4.8-4.2-7.5-6c-2.6-1.8-5.4-3.4-8.4-4.4
						c-3-1-6.2-1.6-9.2-0.6c-1.5,0.4-3.1,0.9-4.7,1.2c-0.4,0.1-0.8,0.2-1.3,0.1c-0.5-0.1-0.8-0.3-1.2-0.5c-0.7-0.3-1.4-0.7-2.2-1.1
						c-2.8-1.5-5.7-3-8.5-4.5l-4.2-2.3c-1.4-0.8-2.8-1.6-4.1-2.6c-1.3-1-2.5-2-3.6-3.2c-1.1-1.2-2.1-2.4-3.1-3.6l0.1,0.1
						c-1.5-0.6-3-1.1-4.6-1.6c-1.6-0.4-3.1-0.8-4.7-1l0.1,0l-0.2,0.2l0,0c0,0,0,0-0.1,0l0,0l-0.2,0.2l0,0l-0.2,0.2l0,0l0,0l-0.1,0.1
						l0,0c-0.1,0.2-0.3,0.5-0.4,0.7l0,0c0.1,1.5,0.4,2.9,1,4.2c-0.7-1.3-1-2.8-1.2-4.2l0,0l0,0c0.1-0.3,0.2-0.5,0.4-0.8l0,0l0.1-0.1
						l0,0L7,29.8l0,0c0.1-0.1,0.1-0.1,0.2-0.2l0,0l0.1-0.1l0,0l0.2-0.2l0,0l0,0c3.2,0.4,6.4,1.2,9.5,2.4l0,0l0,0
						c1.1,1.2,2.1,2.5,3.2,3.6c1.1,1.1,2.3,2.1,3.6,3.1c1.3,0.9,2.6,1.7,4.1,2.5l4.2,2.3c2.8,1.5,5.6,3,8.5,4.5l2.1,1.1
						c0.3,0.2,0.7,0.4,1,0.4c0.3,0,0.7,0,1.1-0.1c1.5-0.3,3.1-0.8,4.6-1.2c0.8-0.2,1.6-0.4,2.4-0.5c0.8-0.1,1.6,0,2.5,0
						c1.6,0.1,3.2,0.6,4.7,1.1c3,1.1,5.8,2.8,8.5,4.6l1.9,1.4l1.9,1.5c1.3,1,2.4,2.1,3.6,3.2c1.1,1.1,2.3,2.3,3.4,3.4
						C79.4,64,80.5,65.2,81.5,66.4z"/>
				</g>
				<defs>
					<filter id="Adobe_OpacityMaskFilter" filterUnits="userSpaceOnUse" x="8.3" y="28" width="20" height="4.1">
						<feFlood  style="flood-color:white;flood-opacity:1" result="back"/>
						<feBlend  in="SourceGraphic" in2="back" mode="normal"/>
					</filter>
				</defs>
				<mask maskUnits="userSpaceOnUse" x="8.3" y="28" width="20" height="4.1" id="SVGID_1_">
					<g class="st2">
						<defs>
							<filter id="Adobe_OpacityMaskFilter_1_" filterUnits="userSpaceOnUse" x="8.3" y="28.1" width="20" height="3.8">
								<feFlood  style="flood-color:white;flood-opacity:1" result="back"/>
								<feBlend  in="SourceGraphic" in2="back" mode="normal"/>
							</filter>
						</defs>
						<mask maskUnits="userSpaceOnUse" x="8.3" y="28.1" width="20" height="3.8" id="SVGID_1_">
						</mask>
						
							<linearGradient id="SVGID_2_" gradientUnits="userSpaceOnUse" x1="-504.5131" y1="31.9168" x2="-504.5131" y2="28.0987" gradientTransform="matrix(-1 0 0 1 -486.1575 0)">
							<stop  offset="0" style="stop-color:#000000"/>
							<stop  offset="0.1277" style="stop-color:#1A1A1A"/>
							<stop  offset="0.401" style="stop-color:#5C5C5C"/>
							<stop  offset="0.7948" style="stop-color:#C6C6C6"/>
							<stop  offset="1" style="stop-color:#FFFFFF"/>
						</linearGradient>
						<path class="st4" d="M8.3,29.5c0.6-0.3,2.3-0.9,6.2-1.4c0.7-0.1,1.4,0,2,0.1c3.6,0.8,5.4,0.2,11.7,0.2c0,0-6.5,0.3-11.5,3.5
							C16.6,31.8,12.9,30.2,8.3,29.5z"/>
					</g>
				</mask>
				<path d="M8.3,29.5c1.6-0.7,3.2-1,4.9-1.3c0.8-0.1,1.7-0.3,2.5-0.3c0.9,0.1,1.7,0.3,2.5,0.4c1.7,0.2,3.3,0,5-0.1
					c1.7-0.1,3.4-0.2,5.1-0.2l0,0.7c-2,0.1-4,0.5-5.9,1C20.6,30.3,18.7,31,17,32l-0.1,0l-0.1,0c-1.4-0.6-2.7-1.1-4.2-1.5
					C11.3,30.1,9.8,29.8,8.3,29.5z M8.3,29.5c1.5,0.2,2.9,0.5,4.4,0.9c1.4,0.4,2.9,0.8,4.3,1.3l-0.1,0c0.9-0.6,1.7-1.1,2.7-1.5
					c0.9-0.4,1.9-0.8,2.8-1.1c1-0.3,2-0.5,3-0.7c1-0.2,2-0.3,3-0.4l0,0.7c-1.7,0-3.4,0-5,0.1c-1.7,0-3.4,0.1-5.1-0.1
					c-0.8-0.1-1.7-0.4-2.5-0.5c-0.8-0.1-1.7,0.1-2.5,0.2C11.6,28.6,9.9,28.9,8.3,29.5z"/>
				<g>
					<g>
						<path d="M47.9,63.7l-18.2-7L25.1,55c-0.8-0.3-1.5-0.6-2.3-0.9c-0.4-0.2-0.8-0.6-0.9-1.1c-0.1-0.5-0.1-0.9-0.1-1.3
							c-0.1-3.2-0.7-6.4-1.4-9.6l-0.1-0.5l0.5,0c0.7,0.1,1.3,0.5,1.7,1.1l0.9,1.5l1.7,3l3.5,6l-0.1-0.1c3.3,1.7,6.6,3.4,9.9,5.1
							c1.6,0.9,3.3,1.7,4.9,2.6l2.4,1.4l1.2,0.7C47.1,63.2,47.6,63.4,47.9,63.7z M47.9,63.7c-0.3-0.3-0.8-0.5-1.1-0.8l-1.2-0.7
							L43,61l-5-2.5l-9.9-4.9l-0.1,0l0-0.1l-3.5-6l-1.8-3l-0.9-1.5c-0.3-0.4-0.7-0.7-1.2-0.7l0.4-0.4c0.8,3.2,1.3,6.4,1.4,9.7
							c0,0.4,0,0.9,0.1,1.1c0.1,0.3,0.3,0.6,0.6,0.7l2.2,0.9l4.5,1.8L47.9,63.7z"/>
					</g>
				</g>
				<g>
					<path d="M49.3,65.4c-0.6-1.5-0.9-3.2-1-4.8c0-0.8-0.1-1.6,0-2.5c0-0.8,0.2-1.7,0.5-2.5c0.5-1.6,1.6-3.1,3.2-3.9
						c0.4-0.2,0.8-0.3,1.3-0.3c0.5-0.1,0.9,0,1.3,0c0.8,0.1,1.7,0.3,2.5,0.6c1.6,0.6,2.9,1.7,4,3c1.1,1.3,1.9,2.7,2.5,4.3
						c1.2,3.1,1.6,6.4,1.5,9.7c-0.1-1.6-0.2-3.3-0.6-4.8c-0.3-1.6-0.7-3.2-1.4-4.6c-0.6-1.5-1.4-2.9-2.5-4.1c-1-1.2-2.3-2.2-3.8-2.8
						c-0.7-0.3-1.5-0.5-2.3-0.6c-0.8-0.1-1.5-0.1-2.2,0.2c-1.4,0.6-2.3,2-2.9,3.5c-0.3,0.7-0.5,1.5-0.6,2.3
						c-0.1,0.8-0.1,1.6-0.1,2.4C48.6,62.2,48.8,63.8,49.3,65.4z"/>
					<path d="M64.9,71.6l1.5,0.3L66.4,72c-0.1-3.8-0.2-7.6-1.5-11.2c-0.6-1.8-1.3-3.5-2.4-5c-1-1.5-2.4-2.8-4-3.7
						c-1.6-0.9-3.5-1.3-5.3-1.1c-1.8,0.2-3.3,1.4-4.3,3c-0.5,0.8-0.8,1.7-1,2.6c-0.2,0.9-0.2,1.8-0.2,2.8c-0.1,1.9,0.1,3.8,0.5,5.6
						c-0.5-1.8-0.8-3.7-0.8-5.6c0-0.9,0-1.9,0.1-2.9c0.2-1,0.5-1.9,0.9-2.8c0.9-1.7,2.6-3.1,4.6-3.4c2-0.2,4,0.2,5.7,1.1
						c1.7,0.9,3.1,2.4,4.2,4c1.1,1.6,1.8,3.4,2.4,5.2c1.1,3.7,1.2,7.6,1,11.3l0,0.1l-0.1,0L64.9,71.6z"/>
					<path d="M17.8,52.7l1.1,0.4l-0.1,0c0.3-2.8,0.3-5.6-0.3-8.3c-0.3-1.3-0.7-2.6-1.3-3.9c-0.6-1.2-1.4-2.3-2.4-3.3
						c-1-1-2.1-1.7-3.4-2.1c-0.3-0.1-0.6-0.2-1-0.3c-0.3-0.1-0.7-0.1-1-0.1c-0.7-0.1-1.3,0-1.9,0.3c-1.1,0.6-1.8,1.9-2.3,3.2
						c-0.5,1.3-0.8,2.6-0.9,4l0,0l0.2,1l-0.3-1l0,0l0,0c0.1-1.4,0.2-2.8,0.7-4.2C5.4,37.2,6,35.8,7.3,35c0.6-0.4,1.5-0.6,2.2-0.5
						c0.4,0,0.7,0,1.1,0.1c0.4,0.1,0.7,0.1,1,0.3c1.4,0.5,2.6,1.2,3.7,2.2c1,1,1.8,2.2,2.5,3.5c0.3,0.7,0.6,1.3,0.8,2
						c0.1,0.3,0.2,0.7,0.3,1l0.2,1c0.5,2.8,0.4,5.6-0.1,8.4l0,0.1l-0.1,0L17.8,52.7z"/>
				</g>
				<g>
					<g>
						<path d="M87.6,38.9c-3.4,1.4-7,2.5-10.5,3.6c-3.6,1-7.2,1.9-10.8,2.7c-1.8,0.4-3.6,0.8-5.4,1.2c-1,0.3-2.1-0.1-2.7-0.9
							l-1.9-2.1c-2.5-2.7-5-5.5-7.6-8l-0.3-0.3l-0.1-0.2c0,0,0-0.1-0.1-0.1c0,0,0,0-0.1-0.2c0-0.1,0-0.1,0-0.2
							c0-0.1,0.1-0.2,0.1-0.2c0,0,0.1-0.1,0.1-0.1l0,0l0,0l0.1,0l0.2-0.1L49,34l1.3-0.4c0.9-0.3,1.8-0.5,2.7-0.8
							c1.8-0.5,3.6-1,5.4-1.5c3.6-0.9,7.3-1.6,10.9-2c0.9-0.1,1.8-0.2,2.8-0.2l0.7,0c0.1,0,0.1,0,0.2,0c0.1,0,0.1,0.1,0.2,0.1
							l0.3,0.2l1.2,0.7c1.6,0.9,3.2,1.8,4.8,2.8l4.8,2.8l2.4,1.4c0.4,0.3,0.8,0.4,1.2,0.8C88.2,38.1,88,38.7,87.6,38.9z M87.6,38.9
							c0.4-0.2,0.6-0.8,0.3-1.2c-0.3-0.3-0.8-0.5-1.2-0.7l-2.4-1.4l-4.8-2.8c-1.6-0.9-3.2-1.8-4.9-2.7l-1.2-0.6
							c-0.2-0.1-0.4-0.2-0.6-0.2l-0.7,0.1c-0.9,0.1-1.8,0.2-2.7,0.3c-3.7,0.5-7.3,1.3-10.8,2.2c-1.8,0.5-3.6,1-5.3,1.5
							c-0.9,0.3-1.8,0.5-2.6,0.8l-1.3,0.4l-0.3,0.1l-0.2,0.1l-0.1,0l0,0l0,0c0,0,0.1,0,0.1,0c0,0,0.1-0.1,0.1-0.1c0-0.1,0-0.1,0-0.1
							c0-0.1,0-0.1,0-0.1c0,0,0,0,0,0l0.1,0.1l0.2,0.2c2.6,2.6,5.1,5.4,7.6,8.1l1.8,2.1c0.5,0.7,1.4,1,2.2,0.8
							c1.8-0.3,3.6-0.7,5.4-1C73.5,43.3,80.7,41.7,87.6,38.9z"/>
					</g>
					<g>
						<path d="M38.8,42.3c-2.7-1.4-5.4-3-8-4.8c-1.3-0.9-2.5-1.9-3.6-3c-0.3-0.3-0.5-0.6-0.8-0.9c-0.2-0.3-0.5-0.7-0.7-0.9
							c-0.2-0.2-0.5-0.3-0.9-0.2c-0.4,0.1-0.7,0.2-1.1,0.2c-0.7,0.2-1.5,0.4-2.2,0.6c-0.4,0.1-0.7,0.2-1.2,0.3
							c-0.5,0.1-1-0.1-1.3-0.4c-0.1-0.1-0.1-0.2-0.2-0.3c-0.1-0.2-0.1-0.3,0-0.5c0.1-0.2,0.2-0.3,0.3-0.4c0.2-0.1,0.2-0.1,0.3-0.1
							l1.1-0.4l2.2-0.8c1.5-0.5,2.9-1,4.4-1.5l1.1-0.3c0.1,0,0.2-0.1,0.3-0.1c0.1,0,0.3,0,0.4,0c0.2,0,0.4,0,0.6,0
							c0.8,0,1.6,0.1,2.4,0.2c3.1,0.4,6.2,1.1,9.1,2.4c2.9,1.2,5.6,3,7.7,5.2c2.2,2.3,4.1,4.7,5.9,7.2c0.5,0.6,0.9,1.3,1.3,1.9
							c0.1,0.2,0.1,0.6-0.1,0.7c-0.1,0.1-0.2,0.1-0.4,0.2l-0.3,0L54,47l-4.6,0.6l0,0l0,0c-0.3,0-0.6-0.2-0.8-0.3l-0.8-0.4l-1.6-0.8
							l1.6,0.7l0.8,0.4c0.3,0.1,0.5,0.3,0.8,0.3l0,0l4.6-0.7l1.1-0.2l0.3,0c0.1,0,0.1,0,0.2-0.1c0.1-0.1,0.1-0.2,0.1-0.3l-1.3-1.9
							c-1.8-2.5-3.8-4.9-6-7.1c-2.1-2.2-4.8-3.9-7.6-5.1c-2.8-1.2-5.8-1.9-8.9-2.3c-0.8-0.1-1.5-0.2-2.3-0.2c-0.2,0-0.4,0-0.6,0
							c-0.1,0-0.2,0-0.2,0c-0.1,0-0.2,0-0.3,0.1L27.4,30c-1.5,0.5-2.9,0.9-4.4,1.4l-2.2,0.7l-1.1,0.4l-0.2,0.1c0,0,0,0,0,0
							c0,0,0,0,0,0.1c0,0,0.1,0.1,0.1,0.2c0.2,0.2,0.5,0.3,0.8,0.3c0.3-0.1,0.7-0.2,1.1-0.3c0.8-0.2,1.5-0.4,2.3-0.6
							c0.4-0.1,0.8-0.2,1.2-0.2c0.4-0.1,1,0,1.3,0.3c0.3,0.4,0.5,0.7,0.7,1c0.2,0.3,0.5,0.6,0.7,0.9c1,1.1,2.2,2.1,3.4,3.1
							C33.4,39.2,36.1,40.8,38.8,42.3z"/>
						<g>
							<path d="M39.4,42.1c-2.6-1.3-5.2-2.7-7.6-4.4l-0.2-0.1l0.1-0.2c1.4-2.3,2.9-4.5,4.4-6.8l0.1-0.2l0.2,0.1
								c2.8,0.7,5.5,1.7,7.9,3.3c1.2,0.8,2.4,1.7,3.4,2.7c1,1,2,2.1,2.9,3.2l0.1,0.1l-0.1,0.1c-0.9,2.2-1.8,4.4-2.7,6.6l0,0.1
								l-0.1,0l-1.6-0.8l1.7,0.7l-0.1,0c0.8-2.3,1.5-4.5,2.4-6.7l0,0.2c-0.9-1.1-1.9-2.1-2.9-3c-1-1-2.1-1.8-3.3-2.5
								c-2.4-1.5-5-2.5-7.7-3.2l0.4-0.1c-1.5,2.2-3,4.5-4.5,6.7l-0.1-0.3c1.2,0.9,2.4,1.7,3.6,2.5C36.9,40.6,38.2,41.3,39.4,42.1z"
								/>
							<path d="M26.8,32.7c0.4-0.7,0.9-1.4,1.6-1.9c0.6-0.6,1.5-0.9,2.3-1.1c0.4-0.1,0.9-0.1,1.3-0.1c0.4,0,0.8,0.1,1.2,0.2l2.5,0.4
								l0.5,0.1l-0.3,0.4c-0.7,1.1-1.4,2.2-2.1,3.2c-0.7,1.1-1.4,2.1-2.2,3.2l-0.2,0.3l-0.2-0.2c-0.8-0.7-1.6-1.3-2.4-2.1
								C28,34.4,27.3,33.6,26.8,32.7z M26.8,32.7c0.7,0.8,1.4,1.5,2.2,2.2c0.8,0.7,1.6,1.3,2.5,1.9l-0.4,0.1
								c0.7-1.1,1.4-2.2,2.1-3.3c0.7-1.1,1.4-2.2,2.1-3.2l0.2,0.5l-2.4-0.5c-0.4-0.1-0.8-0.2-1.2-0.2c-0.4,0-0.8,0-1.2,0
								c-0.8,0.1-1.5,0.4-2.2,0.8C27.8,31.5,27.3,32.1,26.8,32.7z"/>
						</g>
					</g>
				</g>
				<g>
					<g>
						<path d="M46.5,45.3c-0.1,0.4-0.2,0.8-0.3,1.2c-0.1,0.4-0.2,0.8-0.4,1.2c-0.2,0.4-0.6,0.7-1.1,0.9c-0.3,0.1-0.5,0-0.8-0.1
							c-0.2-0.1-0.4-0.2-0.6-0.4l0,0c-0.1-0.1-0.1-0.1-0.1-0.2l0,0c-0.1-0.1-0.2-0.3-0.2-0.5c0-0.1,0-0.2,0-0.3
							c0-0.1,0.1-0.2,0.1-0.3l0,0c0.3-0.5,0.6-1,1-1.5l0.1-0.1l0.1,0l0,0l0,0c0.4,0,0.7,0,1.1,0l0.6,0L46.5,45.3z M46.5,45.3
							c-0.2,0-0.4,0.1-0.6,0.1c-0.2,0-0.3,0.1-0.5,0.1c-0.3,0.1-0.7,0.1-1,0.2l0,0l0,0l0.2-0.1c-0.3,0.5-0.5,1.1-0.8,1.6l0,0
							c0,0,0,0,0,0.1c0,0,0,0,0,0.1c0,0,0,0.1,0,0.1l0,0c0,0,0,0,0,0l0,0c0.1,0.1,0.2,0.2,0.4,0.2c0.2,0.1,0.3,0.1,0.4,0.1
							c0.3,0,0.5-0.2,0.8-0.5c0.2-0.3,0.4-0.6,0.6-1C46.1,46,46.3,45.6,46.5,45.3z"/>
						<g>
							<path d="M46.8,45.2c-0.8,0.1-1.6,0.2-2.4,0.3l0,0c-0.7,0.1-1.5,0.2-2.2,0.2L41,45.9l-0.6,0l-0.3,0L40,46c-0.1,0-0.1,0-0.2,0
								l-2.4-0.6l2.5,0l0.1,0l-0.1,0c0.1-0.1,0.2-0.2,0.3-0.2c0-0.1,0-0.1,0-0.1l0-0.3c0.1-0.3,0.1-0.7,0-0.9
								c-0.2-0.6-0.8-1-1.4-1.3l-0.6-0.4l0.8-0.3l0,0l-0.1,0l0.4-0.1l0,0l0,0l0,0l0,0c1.5-0.1,3.1-0.2,4.6-0.3l0.1,0l0.1,0
								c0.8,0.4,1.6,0.9,2.2,1.5c0.3,0.3,0.7,0.6,0.8,1.1c0.1,0.1,0.1,0.2,0.1,0.3c0,0.1,0,0.2,0,0.4C47.2,44.8,47.1,45,47,45
								L46.8,45.2z M46.8,45.2L47,45c0.1-0.1,0.1-0.2,0.1-0.3c0-0.1,0-0.2,0-0.3c0-0.1-0.1-0.2-0.1-0.3c-0.2-0.4-0.6-0.6-0.9-0.9
								c-0.7-0.5-1.5-0.9-2.2-1.3l0.1,0c-1.5,0.2-3,0.3-4.5,0.4l0,0l0,0l0,0l0,0l-0.3,0l-0.1,0l0,0l0.2-0.7c0.3,0.2,0.7,0.4,1,0.7
								c0.3,0.3,0.6,0.6,0.7,1.1c0.1,0.4,0.1,0.9,0,1.3l-0.1,0.3c0,0.1-0.1,0.3-0.2,0.4c-0.2,0.2-0.4,0.3-0.6,0.4l-0.1,0L40,46
								l-0.1,0l0.1-0.6l4.4-0.1l0,0C45.2,45.3,46,45.2,46.8,45.2z"/>
							<g>
								<path d="M40.5,45.1c-0.1,0.3-0.3,0.4-0.5,0.6l0,0l0,0l-0.1,0l0,0l0,0c-0.8-0.1-1.5-0.2-2.3-0.3l-0.2,0l0.1-0.3
									c0.2-0.6,0.4-1.3,0.6-1.9l0,0l0-0.1l0,0c0,0,0-0.1,0.1-0.2c0-0.1,0.1-0.2,0.1-0.2c0-0.1,0.1-0.2,0.1-0.2l0.1-0.1l0.1-0.1
									l0,0c0,0,0,0-0.1,0.2l0.3-0.3l0,0l-0.3,0.2c0.1-0.2,0.2-0.2,0.3-0.3l0.1-0.1l0,0l0,0l0.1,0l0.1,0c0.5,0.4,1,0.8,1.3,1.4
									C40.8,43.9,40.7,44.5,40.5,45.1z M40.5,45.1c0.1-0.3,0.1-0.6,0.1-0.9c0-0.3-0.1-0.6-0.3-0.8c-0.4-0.5-0.9-0.7-1.4-1l0.2,0
									l0,0l0.2-0.1c-0.1,0.1-0.1,0.1-0.1,0.1l-0.2,0.1l-0.1,0l0,0l0.3-0.3c0,0.3-0.1,0.2-0.1,0.3l0,0l0,0l-0.1,0.1
									c0,0.1-0.1,0.1-0.1,0.2l-0.1,0.2l-0.1,0.2l0,0l0,0.1l0,0c-0.3,0.6-0.6,1.3-0.8,1.9L37.6,45c0.8,0.2,1.5,0.4,2.3,0.6l0,0
									l0.1,0l0,0C40.2,45.5,40.5,45.4,40.5,45.1z"/>
							</g>
						</g>
					</g>
				</g>
				<g>
					<g>
						<path d="M86.1,60.1l-7.6-1.9c-2.5-0.6-4.9-1.3-7.3-2l0.3-0.6c1.2,0.9,2.4,1.8,3.6,2.8c0.6,0.5,1.1,1,1.7,1.5l0.8,0.8
							c0.3,0.2,0.5,0.4,0.9,0.6c0.6,0.3,1.4,0.2,2.1,0.4l2.3,0.3l1.1,0.1c0.4,0.1,0.7,0.1,1-0.1c0.3-0.2,0.4-0.6,0.6-0.9L86.1,60.1z
							 M86.1,60.1l-0.4,1c-0.2,0.3-0.3,0.8-0.6,1c-0.2,0.1-0.4,0.2-0.6,0.2c-0.2,0-0.4,0-0.6,0l-1.1-0.1l-2.3-0.1l-1.1-0.1
							c-0.4,0-0.8-0.1-1.2-0.2c-0.4-0.1-0.7-0.4-1.1-0.6l-0.8-0.8c-0.5-0.5-1.1-1-1.7-1.5c-1.1-1-2.3-1.9-3.5-2.8L69.5,55l1.8,0.5
							c2.5,0.7,5,1.5,7.5,2.2L86.1,60.1z"/>
						<path d="M75.6,58.1l-0.9-1.2l0.7,0.2l0.5,0.7c1.1,1.5,2.8,2.4,4.6,2.6l1.4,0.2c0.4,0,0.9-0.2,1.1-0.5l0.4-0.7l0.5,0.1
							l-0.5,0.8c-0.3,0.5-0.8,0.7-1.4,0.7c-0.1,0-0.1,0-0.2,0l-1.4-0.2C78.6,60.7,76.8,59.7,75.6,58.1z"/>
					</g>
					<g>
						<path d="M105.4,53.5c-0.4-0.5-0.7-1-1.1-1.5l0,0l0,0c-0.7-1.9-1.5-3.8-2.1-5.7l-0.6-1.9l1.2,1.6c0.9,1.2,1.7,2.4,2.5,3.6
							c0.4,0.7,0.6,1.4,0.6,2.1c0,0.4,0,0.7,0,1.1c0,0.2,0,0.4-0.1,0.5C105.8,53.6,105.5,53.7,105.4,53.5z M105.4,53.5
							c0.1,0.2,0.4,0.1,0.4-0.1c0-0.2,0.1-0.4,0.1-0.5c0-0.4,0-0.7-0.1-1.1c-0.1-0.7-0.4-1.4-0.8-1.9c-0.4-0.6-0.9-1.1-1.4-1.7
							c-0.5-0.6-0.9-1.1-1.3-1.7l0.6-0.3c0.6,1.9,1,3.9,1.5,5.9l0,0C104.7,52.5,105,53,105.4,53.5z"/>
						<path d="M103.1,48.1l-0.3-0.8c0.5,0.5,1.7,2,1.9,3c0.1,0.6,0.1,1,0.1,1.2c0,0.1-0.1,0.2-0.2,0.3c0,0-0.1,0-0.1,0
							c-0.1,0-0.1,0-0.2-0.1l-0.2-0.2l-0.2-0.6l0.5,0.4c0-0.2-0.1-0.6-0.1-1.1C104.4,49.7,103.7,48.8,103.1,48.1z"/>
					</g>
				</g>
				<g>
					<g>
						<path d="M79.1,66.2c2.7-0.6,5.4-0.4,8.1-0.4c2.7,0.1,5.4,0.2,8.2,0.1c2.7-0.1,5.4-0.8,7.8-2c1.2-0.6,2.4-1.3,3.5-2.1
							c0.3-0.2,0.6-0.4,0.7-0.6c0.1-0.2,0.3-0.5,0.3-0.8c0.2-0.6,0.3-1.3,0.4-2l0.2-1.1l0.4,1c0.4,1.1,0.9,2.1,1.3,3.3
							c0.2,1.4-0.4,2.5-1.1,3.5c-0.7,1-1.7,1.8-2.6,2.5c-1,0.7-2,1.3-3.1,1.8c-4.3,2.1-8.9,3.3-13.5,4.1c-2.3,0.4-4.7,0.7-7,0.9
							l-1.8,0.1c-0.6,0-1.2,0.1-1.8,0c-1.2-0.2-2.3-0.6-3.4-1c-1.1-0.5-2.2-1-3.2-1.6c-0.2-0.2-0.5-0.3-0.7-0.5
							c-0.1-0.1-0.2-0.2-0.2-0.4c0-0.1,0-0.2,0-0.2c0-0.1,0-0.2,0.1-0.2c0.3-0.5,0.7-1,1.1-1.3C74.7,67.8,76.8,66.8,79.1,66.2z
							 M79.1,66.2c-2.3,0.6-4.4,1.7-6.2,3.2c-0.4,0.4-0.9,0.8-1.1,1.3c-0.1,0.3-0.1,0.5,0.2,0.7c0.2,0.2,0.5,0.4,0.7,0.5
							c1,0.6,2.1,1.1,3.2,1.5c1.1,0.4,2.2,0.8,3.4,0.9c0.6,0.1,1.1,0,1.7,0l1.7-0.2c2.3-0.2,4.6-0.6,6.9-1c4.6-0.9,9.1-2.2,13.3-4.3
							c2-1.1,4.1-2.3,5.5-4.1c0.4-0.4,0.6-0.9,0.8-1.4c0.1-0.3,0.2-0.5,0.2-0.8c0.1-0.3,0-0.5,0-0.8c-0.3-1-0.8-2.2-1.2-3.3l0.6-0.1
							c-0.1,0.7-0.3,1.3-0.5,2c-0.1,0.3-0.2,0.7-0.5,1c-0.3,0.3-0.6,0.5-0.8,0.7c-1.1,0.8-2.3,1.4-3.6,2c-2.5,1.1-5.2,1.8-8,1.9
							c-2.7,0.1-5.5-0.1-8.2-0.2C84.5,65.8,81.7,65.6,79.1,66.2z"/>
						<g>
							<path d="M79.1,66.2c2.7-0.6,5.4-0.4,8.1-0.4c2.7,0.1,5.4,0.2,8.2,0.1c2.7-0.1,5.4-0.8,7.8-2c1.2-0.6,2.4-1.3,3.5-2.1
								c0.3-0.2,0.6-0.4,0.7-0.6c0.1-0.2,0.3-0.5,0.3-0.8c0.2-0.6,0.3-1.3,0.4-2l0.2-1.1l0.4,1c0.4,1.1,0.9,2.1,1.3,3.3
								c0.2,1.4-0.4,2.5-1.1,3.5c-0.7,1-1.7,1.8-2.6,2.5c-1,0.7-2,1.3-3.1,1.8c-4.3,2.1-8.9,3.3-13.5,4.1c-2.3,0.4-4.7,0.7-7,0.9
								l-1.8,0.1c-0.6,0-1.2,0.1-1.8,0c-1.2-0.2-2.3-0.6-3.4-1c-1.1-0.5-2.2-1-3.2-1.6c-0.2-0.2-0.5-0.3-0.7-0.5
								c-0.1-0.1-0.2-0.2-0.2-0.4c0-0.1,0-0.2,0-0.2c0-0.1,0-0.2,0.1-0.2c0.3-0.5,0.7-1,1.1-1.3C74.7,67.8,76.8,66.8,79.1,66.2z
								 M79.1,66.2c-2.3,0.6-4.4,1.7-6.2,3.2c-0.4,0.4-0.9,0.8-1.1,1.3c-0.1,0.3-0.1,0.5,0.2,0.7c0.2,0.2,0.5,0.4,0.7,0.5
								c1,0.6,2.1,1.1,3.2,1.5c1.1,0.4,2.2,0.8,3.4,0.9c0.6,0.1,1.1,0,1.7,0l1.7-0.2c2.3-0.2,4.6-0.6,6.9-1
								c4.6-0.9,9.1-2.2,13.3-4.3c2-1.1,4.1-2.3,5.5-4.1c0.4-0.4,0.6-0.9,0.8-1.4c0.1-0.3,0.2-0.5,0.2-0.8c0.1-0.3,0-0.5,0-0.8
								c-0.3-1-0.8-2.2-1.2-3.3l0.6-0.1c-0.1,0.7-0.3,1.3-0.5,2c-0.1,0.3-0.2,0.7-0.5,1c-0.3,0.3-0.6,0.5-0.8,0.7
								c-1.1,0.8-2.3,1.4-3.6,2c-2.5,1.1-5.2,1.8-8,1.9c-2.7,0.1-5.5-0.1-8.2-0.2C84.5,65.8,81.7,65.6,79.1,66.2z"/>
						</g>
					</g>
					<path d="M108.5,58.5c0.2,0.6,0.6,1.2,0.9,1.9c0.3,0.7,0.7,1.4,0.6,2.2c-0.1,0.8-0.4,1.5-0.7,2.1c-0.4,0.6-0.9,1.2-1.4,1.7
						l-0.6,0.6l0.1-0.9c0.1-1.3,0.2-2.6,0.3-3.9c0.1-0.6,0.1-1.3,0.3-1.9C108.1,59.7,108.3,59,108.5,58.5z M108.5,58.5
						c-0.1,0.7-0.2,1.3-0.3,1.9c-0.1,0.6-0.1,1.2-0.1,1.9c0,1.3-0.1,2.6-0.1,3.9l-0.6-0.3c1-0.9,1.9-2.1,2.1-3.4
						c0.2-0.6-0.2-1.3-0.4-1.9C108.9,59.9,108.7,59.2,108.5,58.5z"/>
					<g>
						<path d="M95.9,66c1-0.1,2.1-0.3,3-0.6c1-0.3,2-0.6,2.9-1c0.9-0.4,1.9-0.9,2.8-1.4c0.9-0.5,1.8-1.1,2.5-1.7l0.6-0.5l0,0.7
							c-0.1,1.7-0.2,3.4-0.3,5.1l0,0.2l-0.1,0.1c-1.4,1.1-3,2-4.6,2.8c-1.6,0.8-3.3,1.3-5,1.9l-0.2,0.1l-0.1-0.2
							C96.9,69.6,96.4,67.7,95.9,66z M95.9,66c0.6,1.9,1.3,3.6,1.9,5.3l-0.3-0.1c1.7-0.6,3.3-1.3,4.8-2c1.6-0.8,3.1-1.6,4.4-2.7
							l-0.1,0.2c0.1-1.7,0.3-3.4,0.4-5.1l0.5,0.3c-1.7,1.3-3.6,2.3-5.5,3c-1,0.4-2,0.7-3,0.8C98,65.9,97,66,95.9,66z"/>
					</g>
					<g>
						<path d="M79.1,66.7c1.7-0.4,3.4-0.4,5.1-0.5c1.7,0,3.4,0.1,5.1,0.1l2.6,0.1c0.9,0,1.8,0.2,2.5,0.7c0.4,0.2,0.7,0.6,1,0.9
							c0.3,0.4,0.4,0.8,0.6,1.2l1.1,2.3l0.1,0.3L96.8,72c-2.7,0.8-5.5,1.5-8.3,2c-2.8,0.4-5.7,0.8-8.5,0.8c-1.5,0-2.9-0.6-4.2-1.2
							c-0.6-0.3-1.3-0.6-1.9-1c-0.6-0.4-1.2-0.7-1.7-1.4c-0.2-0.4,0.1-0.8,0.3-1c0.2-0.3,0.5-0.5,0.8-0.8c0.6-0.5,1.2-0.8,1.8-1.2
							C76.4,67.6,77.7,67.1,79.1,66.7z M79.1,66.7c-1.4,0.4-2.7,0.9-3.9,1.6c-0.6,0.4-1.2,0.7-1.7,1.2c-0.3,0.2-0.5,0.5-0.7,0.7
							c-0.2,0.3-0.4,0.6-0.3,0.9c0.4,0.5,1,0.9,1.6,1.2c0.6,0.3,1.2,0.7,1.9,0.9c1.3,0.5,2.7,1,4,1c2.8-0.2,5.6-0.5,8.4-1
							c2.8-0.5,5.5-1.1,8.3-1.9l-0.2,0.4l-1-2.4c-0.2-0.4-0.3-0.8-0.5-1.1c-0.2-0.3-0.5-0.6-0.8-0.9c-1.4-0.9-3.2-0.7-4.9-0.9
							c-1.7-0.1-3.4-0.2-5.1-0.3C82.5,66.3,80.7,66.3,79.1,66.7z"/>
					</g>
				</g>
			</g>
		</g>
		<defs>
			<filter id="Adobe_OpacityMaskFilter_2_" filterUnits="userSpaceOnUse" x="78.7" y="43" width="23" height="19.3">
				<feFlood  style="flood-color:white;flood-opacity:1" result="back"/>
				<feBlend  in="SourceGraphic" in2="back" mode="normal"/>
			</filter>
		</defs>
		<mask maskUnits="userSpaceOnUse" x="78.7" y="43" width="23" height="19.3" id="SVGID_3_">
			<g class="st5">
				<defs>
					<filter id="Adobe_OpacityMaskFilter_3_" filterUnits="userSpaceOnUse" x="76.9" y="40.2" width="28.3" height="22.1">
						<feFlood  style="flood-color:white;flood-opacity:1" result="back"/>
						<feBlend  in="SourceGraphic" in2="back" mode="normal"/>
					</filter>
				</defs>
				<mask maskUnits="userSpaceOnUse" x="76.9" y="40.2" width="28.3" height="22.1" id="SVGID_3_">
				</mask>
				
					<linearGradient id="SVGID_4_" gradientUnits="userSpaceOnUse" x1="-583.7891" y1="42.8537" x2="-575.3173" y2="53.6441" gradientTransform="matrix(-1 0 0 1 -486.1575 0)">
					<stop  offset="0" style="stop-color:#FFFFFF"/>
					<stop  offset="0.1025" style="stop-color:#EDEDED"/>
					<stop  offset="0.3079" style="stop-color:#BEBEBE"/>
					<stop  offset="0.5978" style="stop-color:#737373"/>
					<stop  offset="0.9577" style="stop-color:#0D0D0D"/>
					<stop  offset="1" style="stop-color:#000000"/>
				</linearGradient>
				<path class="st7" d="M78.7,43c-0.6-0.2-1.2-0.4-1.8-0.6c3.7-1.4,7.7-2.5,11.1-2.2c8.1,0.8,15.8,16.7,17.2,19.9
					c-0.2,0.2-1.5,1.2-3.5,2.1C91.9,49.2,78.7,43,78.7,43z"/>
			</g>
		</mask>
		<path d="M101.7,62.3c-1.7-1.9-3.3-3.8-5.1-5.6c-0.9-0.9-1.8-1.7-2.7-2.6c-0.9-0.8-1.9-1.7-2.9-2.5c-1.9-1.6-3.9-3.1-6-4.6
			c-2.1-1.4-4.2-2.8-6.4-4.1c2.3,1,4.5,2.3,6.7,3.6c2.1,1.4,4.2,2.9,6.1,4.5c1.9,1.6,3.8,3.4,5.5,5.2
			C98.7,58.2,100.3,60.2,101.7,62.3z"/>
	</g>
</g>
</svg>
