<svg xmlns="http://www.w3.org/2000/svg" viewBox="0 0 430.48 75.93"><defs><style>.logo-cls-1{fill:#0069ff;}.logo-cls-2{fill:#fff;}</style></defs><g id="Layer_2" ><g id="Layer_1-2"><path class="logo-cls-1" d="M126.07,50.47A22.83,22.83,0,0,1,103.24,73.3H45.48L78.92,3.36a31.12,31.12,0,0,1,23.76,24.29h.6A22.83,22.83,0,0,1,126.07,50.47Z"/><path class="logo-cls-2" d="M33.41,35.24c.69-2.77,1.29-5.2,2-8.19,4.43,5.56,9.39,9.12,15.81,10.75,0-.67.07-1.2.1-1.73-4.43-2.4-7-6.26-8.72-10.72-1.93-5-1-7.29,3.53-10,3.53-2.09,7.72-5.18,11.51-6.85h.83a16.33,16.33,0,0,1-.4,2,27.42,27.42,0,0,0-.56,16.77l1.56-.74c0-4.89,1.86-9,4.76-12.67,2.49-3.23,5.72-5.09,9.85-3.93,5.09,1.47,9.15,4.63,12.57,8.55.14.14.1.44.14.77a27.84,27.84,0,0,0-16.54,8.22,8.91,8.91,0,0,1,.87.6c3.26-.77,6-1.93,8.71-1.93,3.5,0,8.69.29,11.45,2.72a8,8,0,0,1,2.29,4,19,19,0,0,1,.17,8.35c-.23,1.37-.53,2.73-.86,4.1-.14.53-1.47,3.09-1.17,3.39-2.39-2.3-4-4.52-6.82-6.45a27.62,27.62,0,0,0-8.62-3.9c-.06.67-.13,1.17-.2,1.63,4.53,3.06,6.86,5.89,8.69,10.55A9.92,9.92,0,0,1,84,59.26c-1.53,2.56-4.22,4-6.85,5.12-1.17.53-2.33,1-3.5,1.63-.93.47-5.69,2.8-4.72-.13a26,26,0,0,0,1.56-7.42,23.2,23.2,0,0,0-.06-4.86c0-.4-.9-4.76-.93-4.72-.57.26-1.07.5-1.54.73,0,5.52-2.29,10-5.85,13.91a8.18,8.18,0,0,1-8.88,2.62,21.38,21.38,0,0,1-5.89-2.89c-2.5-1.73-4.73-3.79-7.69-6.22,7.29-1.13,12.94-3.6,17.5-8.39-.53-.36-1-.66-1.36-1C45.22,53,36.13,50.34,33.37,40.76M73.23,38.2a9.68,9.68,0,1,0-10,9.51A9.66,9.66,0,0,0,73.23,38.2Z"/><path class="logo-cls-2" d="M69.9,38.1a6.32,6.32,0,0,1-6.45,6.32,6.39,6.39,0,0,1-6.29-6.36,6.32,6.32,0,0,1,6.42-6.35A6.18,6.18,0,0,1,69.9,38.1Z"/><path class="logo-cls-1" d="M76.06.13c-1-.06-1.9-.13-2.89-.13A33.41,33.41,0,0,0,45.28,15,16.18,16.18,0,0,0,20.36,28.68v.23a23.62,23.62,0,0,0,3.26,47H39.36Z"/><polyline class="logo-cls-2" points="45.48 73.3 39.36 75.93 76.06 0.13 78.92 3.36"/><path d="M141.73,20.11h27.46v7.23H150.5v9.89h16.87v7.22H150.5V61.58h-8.77Z"/><path d="M182.59,61.58H174V20.11h8.63Z"/><path d="M187.25,46.17c0-9.59,5.93-16.09,15.09-16.09,8.22,0,14.61,5.22,14.61,15.79v2.37H195.78v0c0,4.64,2.73,7.49,7,7.49,2.88,0,5.1-1.23,6-3.6l8,.52c-1.21,5.77-6.4,9.52-14.09,9.52C193.1,62.19,187.25,56,187.25,46.17Zm21.59-3.28a6.13,6.13,0,0,0-6.36-6.37,6.56,6.56,0,0,0-6.7,6.37Z"/><path d="M234,41.35l5.85-10.87h8.85l-9,15.55L249,61.58h-8.81L234,50.83l-6,10.75h-8.91L228.31,46,219.4,30.48h8.91Z"/><path d="M252.86,30.48h8.51v5.23h.38a9.18,9.18,0,0,1,8.85-5.63c6.82,0,12.59,5.3,12.59,16,0,10.41-5.52,16-12.61,16a9.21,9.21,0,0,1-8.83-5.49h-.26V73.25h-8.63Zm15,24.75c4.23,0,6.54-3.77,6.54-9.2s-2.27-9.09-6.54-9.09-6.54,3.54-6.54,9.09S263.69,55.23,267.85,55.23Z"/><path d="M286.71,46.15c0-9.63,5.87-16.07,15.31-16.07s15.31,6.44,15.31,16.07-5.88,16-15.31,16S286.71,55.73,286.71,46.15Zm21.85-.06c0-5.42-2.23-9.43-6.5-9.43s-6.58,4-6.58,9.43,2.23,9.42,6.58,9.42S308.56,51.52,308.56,46.09Z"/><path d="M320.74,46.15c0-9.63,5.87-16.07,15.31-16.07s15.31,6.44,15.31,16.07-5.87,16-15.31,16S320.74,55.73,320.74,46.15Zm21.85-.06c0-5.42-2.23-9.43-6.5-9.43s-6.58,4-6.58,9.43,2.23,9.42,6.58,9.42S342.59,51.52,342.59,46.09Z"/><path d="M364.65,61.58H356V20.11h8.62Z"/><path class="logo-cls-1" d="M370.75,57.25a4.85,4.85,0,0,1,4.86-4.82,4.84,4.84,0,1,1,0,9.68A4.86,4.86,0,0,1,370.75,57.25Z"/><path class="logo-cls-1" d="M386.25,22.1a4.68,4.68,0,0,1,9.34,0,4.68,4.68,0,0,1-9.34,0Zm.33,8.38h8.62v31.1h-8.62Z"/><path class="logo-cls-1" d="M399.87,46.15c0-9.63,5.87-16.07,15.3-16.07s15.31,6.44,15.31,16.07-5.87,16-15.31,16S399.87,55.73,399.87,46.15Zm21.84-.06c0-5.42-2.22-9.43-6.5-9.43s-6.58,4-6.58,9.43,2.23,9.42,6.58,9.42S421.71,51.52,421.71,46.09Z"/></g></g></svg>