
<svg version="1.1" id="Layer_1" xmlns="http://www.w3.org/2000/svg" xmlns:xlink="http://www.w3.org/1999/xlink" x="0px" y="0px"
	 viewBox="0 0 430.5 93.5" style="enable-background:new 0 0 430.5 93.5;" xml:space="preserve">
<style type="text/css">
	.st0{fill:#0069FF;}
	.st1{fill:#FFFFFF;}
	.st2{fill:#C30C0C;}
	.st3{fill:#E8E8E8;}
</style>
<g>
	<g id="Layer_2_2_">
		<g id="Layer_1-2_1_">
			<path class="st0" d="M126,68.1c0,12.6-10.2,22.8-22.8,22.8l0,0H45.4l33.5-70c12,2.7,21.4,12.2,23.8,24.3h0.6
				C115.8,45.3,126,55.5,126,68.1z"/>
			<path class="st1" d="M33.3,52.8c0.7-2.8,1.3-5.2,2-8.2c4.4,5.6,9.4,9.1,15.8,10.7c0-0.7,0.1-1.2,0.1-1.7c-4.4-2.4-7-6.3-8.7-10.7
				c-1.9-5-1-7.3,3.5-10c3.5-2.1,7.7-5.2,11.5-6.9h0.8c-0.1,0.7-0.2,1.3-0.4,2c-1.9,5.4-2.1,11.3-0.6,16.8l1.6-0.7
				c0-4.9,1.9-9,4.8-12.7c2.5-3.2,5.7-5.1,9.8-3.9c5.1,1.5,9.1,4.6,12.6,8.5c0.1,0.1,0.1,0.4,0.1,0.8c-6.3,0.8-12.1,3.7-16.5,8.2
				c0.3,0.2,0.6,0.4,0.9,0.6c3.3-0.8,6-1.9,8.7-1.9c3.5,0,8.7,0.3,11.4,2.7c1.2,1.1,1.9,2.5,2.3,4c0.7,2.8,0.7,5.6,0.2,8.3
				c-0.2,1.4-0.5,2.7-0.9,4.1c-0.1,0.5-1.5,3.1-1.2,3.4c-2.4-2.3-4-4.5-6.8-6.4c-2.6-1.8-5.5-3.1-8.6-3.9c-0.1,0.7-0.1,1.2-0.2,1.6
				c4.5,3,6.9,5.9,8.7,10.6c1.2,2.8,1.1,6-0.4,8.7c-1.5,2.6-4.2,4-6.9,5.1c-1.2,0.5-2.3,1-3.5,1.6c-0.9,0.5-5.7,2.8-4.7-0.1
				c0.9-2.4,1.4-4.9,1.6-7.4c0.1-1.6,0.1-3.3-0.1-4.9c0-0.4-0.9-4.8-0.9-4.7c-0.6,0.3-1.1,0.5-1.5,0.7c0,5.5-2.3,10-5.9,13.9
				c-2.1,2.6-5.6,3.7-8.9,2.6c-2.1-0.7-4.1-1.6-5.9-2.9c-2.5-1.7-4.7-3.8-7.7-6.2c7.3-1.1,13-3.6,17.5-8.4c-0.5-0.4-1-0.7-1.4-1
				c-10.6,5.4-19.7,2.7-22.4-6.9 M73.2,55.8c0.1-5.4-4.2-9.8-9.5-9.8c-5.4-0.1-9.8,4.2-9.8,9.5c-0.1,5.3,4.1,9.7,9.3,9.8
				c5.3,0.2,9.8-4,10-9.3C73.2,55.9,73.2,55.8,73.2,55.8z"/>
			<path class="st1" d="M69.8,55.7c0,3.5-2.8,6.3-6.3,6.3h-0.1c-3.5-0.1-6.3-2.9-6.3-6.4s2.8-6.3,6.3-6.4h0.1c3.4-0.1,6.2,2.6,6.3,6
				C69.8,55.5,69.8,55.6,69.8,55.7z"/>
			<path class="st0" d="M76,17.7c-1-0.1-1.9-0.1-2.9-0.1c-11.2,0-21.7,5.6-27.9,15c-7.5-4.8-17.5-2.6-22.4,4.9
				c-1.7,2.6-2.6,5.7-2.6,8.8v0.2C7.3,48.4-1.6,60.3,0.2,73.3c1.7,11.6,11.6,20.2,23.3,20.3h15.7L76,17.7z"/>
			<polyline class="st1" points="45.4,90.9 39.3,93.5 76,17.7 78.9,20.9 			"/>
			<path class="st1" d="M141.7,37.7h27.4v7.2h-18.7v9.9h16.9V62h-16.9v17.1h-8.8L141.7,37.7L141.7,37.7z"/>
			<path class="st1" d="M182.5,79.2H174V37.7h8.6L182.5,79.2z"/>
			<path class="st1" d="M187.2,63.7c0-9.6,5.9-16.1,15.1-16.1c8.2,0,14.6,5.2,14.6,15.8v2.4h-21.2l0,0c0,4.6,2.7,7.5,7,7.5
				c2.9,0,5.1-1.2,6-3.6l8,0.5c-1.2,5.8-6.4,9.5-14.1,9.5C193.1,79.8,187.2,73.6,187.2,63.7z M208.8,60.5c0.1-3.4-2.5-6.2-5.9-6.4
				c-0.1,0-0.3,0-0.5,0c-3.6-0.1-6.6,2.8-6.7,6.4H208.8z"/>
			<path class="st1" d="M234,58.9l5.9-10.9h8.8l-9,15.6l9.3,15.6h-8.8L234,68.4l-6,10.7h-8.9l9.2-15.6L219.4,48h8.9L234,58.9z"/>
			<path class="st1" d="M252.8,48.1h8.5v5.2h0.4c1.5-3.5,5-5.8,8.8-5.6c6.8,0,12.6,5.3,12.6,16c0,10.4-5.5,16-12.6,16
				c-3.8,0.2-7.3-2-8.8-5.5h-0.3v16.7h-8.6L252.8,48.1L252.8,48.1z M267.8,72.8c4.2,0,6.5-3.8,6.5-9.2s-2.3-9.1-6.5-9.1
				s-6.6,3.5-6.6,9.1C261.3,69.1,263.7,72.8,267.8,72.8L267.8,72.8z"/>
			<path class="st1" d="M286.7,63.7c0-9.6,5.9-16.1,15.3-16.1s15.3,6.4,15.3,16.1c0,9.6-5.9,16-15.3,16S286.7,73.3,286.7,63.7z
				 M308.6,63.7c0-5.4-2.2-9.4-6.5-9.4s-6.6,4-6.6,9.4s2.2,9.4,6.6,9.4C306.4,73.1,308.6,69.1,308.6,63.7z"/>
			<path class="st1" d="M320.7,63.7c0-9.6,5.9-16.1,15.3-16.1s15.3,6.4,15.3,16.1c0,9.6-5.9,16-15.3,16S320.7,73.3,320.7,63.7z
				 M342.6,63.7c0-5.4-2.2-9.4-6.5-9.4s-6.6,4-6.6,9.4s2.2,9.4,6.6,9.4S342.6,69.1,342.6,63.7z"/>
			<path class="st1" d="M364.6,79.2H356V37.7h8.6V79.2z"/>
			<path class="st0" d="M370.7,74.8c0-2.7,2.2-4.8,4.9-4.8l0,0c2.7,0,4.9,2.2,4.9,4.9c0,2.7-2.2,4.9-4.9,4.9l0,0
				C372.9,79.7,370.8,77.5,370.7,74.8L370.7,74.8z"/>
			<path class="st0" d="M386.2,39.7c0.2-2.6,2.4-4.5,5-4.4c2.3,0.1,4.2,2,4.4,4.4c-0.2,2.6-2.4,4.5-5,4.4
				C388.3,43.9,386.4,42,386.2,39.7z M386.6,48.1h8.6v31.1h-8.6V48.1z"/>
			<path class="st0" d="M399.9,63.7c0-9.6,5.9-16.1,15.3-16.1s15.3,6.4,15.3,16.1c0,9.6-5.9,16-15.3,16S399.9,73.3,399.9,63.7z
				 M421.7,63.7c0-5.4-2.2-9.4-6.5-9.4s-6.6,4-6.6,9.4s2.2,9.4,6.6,9.4C419.5,73.1,421.7,69.1,421.7,63.7z"/>
		</g>
	</g>
	<g>
		<path class="st2" d="M4.9,37.4c0,0-9.6-7.7-1.4-19.7S22.9,0.1,38.6,0.6S61.9,5,66,10.9S49.2,27.3,49,27.4s-28.9,7.2-28.9,7.2
			s-0.8-5.4-2.3-6c-1.1-0.4-6.4-1.7-9.6,3.9c-1.3,2.2,0.1,3.9,0.1,3.9L4.9,37.4z"/>
		<circle class="st1" cx="6.8" cy="37.4" r="4.9"/>
		<path class="st1" d="M18.6,32.2c8.8-4.9,20-5.1,30-9.9c10.3-4.9,14.1-10,17.9-12.1c2.6-1.4,7.7,5.8,5.9,8.2
			c-3.8,5-47.1,23.5-51.5,22.5C16.5,39.8,16.5,33.3,18.6,32.2z"/>
	</g>
</g>
</svg>
