<svg xmlns="http://www.w3.org/2000/svg" viewBox="0 0 381.44 78.4"><defs><style>.cls-1{fill:#0069ff;}</style></defs><g id="Layer_2" data-name="Layer 2"><g id="Layer_1-2" data-name="Layer 1"><path d="M0,62.4V4H13.12V62.4ZM11.52,14.88V4H35V14.88Zm0,24V28H34.08V38.88Z"/><path class="cls-1" d="M38.4,67.2,55,0H68.08L51.52,67.2Z"/><path d="M93.92,63.92A23.92,23.92,0,0,1,84,62a20.43,20.43,0,0,1-7.12-5.16,23.07,23.07,0,0,1-4.32-7.28,23.79,23.79,0,0,1-1.48-8.28v-1.6a24.27,24.27,0,0,1,1.48-8.44A22.81,22.81,0,0,1,76.88,24a20,20,0,0,1,7-5.08A23.23,23.23,0,0,1,93.44,17a21.26,21.26,0,0,1,11.88,3.16,21,21,0,0,1,7.4,8.24,24.24,24.24,0,0,1,2.56,11.08v4.32H76.48V36.56h31l-4.16,3.36a18,18,0,0,0-1.12-6.72,9,9,0,0,0-3.32-4.28,9.58,9.58,0,0,0-5.48-1.48A10.18,10.18,0,0,0,87.76,29a9.34,9.34,0,0,0-3.52,4.44A18.87,18.87,0,0,0,83,40.56a19,19,0,0,0,1.12,6.84,9.25,9.25,0,0,0,3.52,4.52,11,11,0,0,0,6.24,1.6,10.92,10.92,0,0,0,5.76-1.36,7.05,7.05,0,0,0,3-3.36h11.76a18.44,18.44,0,0,1-3.76,7.84,19.1,19.1,0,0,1-7,5.36A23.45,23.45,0,0,1,93.92,63.92Z"/><path d="M118.64,62.4l13.6-23.52-.32,2-12.8-22.32H133l7.92,14.88h1.28l7.44-14.88h13L150.4,41l.32-1.68,14.4,23H151.2l-9.44-15.92h-1.28L131.6,62.4Z"/><path d="M171.6,78.4V18.56h10.16v19l-1.36-.08a26.12,26.12,0,0,1,2.72-11.08,16.33,16.33,0,0,1,6.48-6.8,18.54,18.54,0,0,1,9.2-2.28A19.89,19.89,0,0,1,207.08,19a19,19,0,0,1,6.4,4.68,20.45,20.45,0,0,1,4.08,7,26.91,26.91,0,0,1,1.4,8.84v1.84a27.94,27.94,0,0,1-1.36,8.84,21.12,21.12,0,0,1-4,7.16,18.3,18.3,0,0,1-6.32,4.76,20,20,0,0,1-8.52,1.72,19.18,19.18,0,0,1-8.92-2,15.39,15.39,0,0,1-6.36-6.24,23.09,23.09,0,0,1-2.64-10.68l3.52,4.8V78.4Zm23.6-25.28a10.17,10.17,0,0,0,5.72-1.6,10.67,10.67,0,0,0,3.8-4.48,15.32,15.32,0,0,0,1.36-6.64,14.81,14.81,0,0,0-1.36-6.56A10.57,10.57,0,0,0,201,29.48a10.34,10.34,0,0,0-5.76-1.56,11.4,11.4,0,0,0-5.44,1.36,10.66,10.66,0,0,0-4.12,3.88,11.41,11.41,0,0,0-1.56,6.12v3a10.33,10.33,0,0,0,1.64,5.88,10.73,10.73,0,0,0,4.2,3.72A11.74,11.74,0,0,0,195.2,53.12Z"/><path d="M249.2,63.92A27.31,27.31,0,0,1,239,62.12a21.91,21.91,0,0,1-7.56-4.92A21.35,21.35,0,0,1,226.72,50a22.84,22.84,0,0,1-1.6-8.52V39.68A23.33,23.33,0,0,1,226.76,31a20.84,20.84,0,0,1,4.8-7.24,22.85,22.85,0,0,1,7.64-4.92,29,29,0,0,1,20.12,0,22.49,22.49,0,0,1,7.56,4.92,21.71,21.71,0,0,1,4.8,7.24,22.78,22.78,0,0,1,1.68,8.68v1.84a22.84,22.84,0,0,1-1.6,8.52,21.35,21.35,0,0,1-4.68,7.16,22,22,0,0,1-7.56,4.92A27.55,27.55,0,0,1,249.2,63.92Zm0-10.8a11.25,11.25,0,0,0,6.24-1.6,10.33,10.33,0,0,0,3.8-4.48,15.17,15.17,0,0,0,1.32-6.4A15.05,15.05,0,0,0,259.2,34a11.1,11.1,0,0,0-3.88-4.52,11.91,11.91,0,0,0-12.2,0A10.67,10.67,0,0,0,239.24,34a15.49,15.49,0,0,0-1.32,6.6A15.63,15.63,0,0,0,239.2,47,9.85,9.85,0,0,0,243,51.52,11.37,11.37,0,0,0,249.2,53.12Z"/><path d="M303.68,63.92a27.27,27.27,0,0,1-10.24-1.8,21.91,21.91,0,0,1-7.56-4.92A21.2,21.2,0,0,1,281.2,50a22.84,22.84,0,0,1-1.6-8.52V39.68A23.33,23.33,0,0,1,281.24,31a20.84,20.84,0,0,1,4.8-7.24,22.85,22.85,0,0,1,7.64-4.92,29,29,0,0,1,20.12,0,22.49,22.49,0,0,1,7.56,4.92,21.71,21.71,0,0,1,4.8,7.24,22.78,22.78,0,0,1,1.68,8.68v1.84a22.84,22.84,0,0,1-1.6,8.52,21.35,21.35,0,0,1-4.68,7.16A22,22,0,0,1,314,62.12,27.55,27.55,0,0,1,303.68,63.92Zm0-10.8a11.3,11.3,0,0,0,6.24-1.6,10.33,10.33,0,0,0,3.8-4.48,15.17,15.17,0,0,0,1.32-6.4,15.19,15.19,0,0,0-1.36-6.6,11.1,11.1,0,0,0-3.88-4.52,11.91,11.91,0,0,0-12.2,0A10.67,10.67,0,0,0,293.72,34a15.49,15.49,0,0,0-1.32,6.6,15.63,15.63,0,0,0,1.28,6.4,9.85,9.85,0,0,0,3.84,4.48A11.37,11.37,0,0,0,303.68,53.12Z"/><path class="cls-1" d="M332.4,67.2,349,0h13.12L345.52,67.2Z"/><path d="M367.36,62.4V48.08h14.08V62.4Z"/></g></g></svg>